<svg width="240" height="240" viewBox="0 0 240 240" fill="none" xmlns="http://www.w3.org/2000/svg">
<mask id="mask0_2834_67620" style="mask-type:alpha" maskUnits="userSpaceOnUse" x="0" y="0" width="240" height="240">
<rect width="240" height="240" fill="#C4C4C4"/>
</mask>
<g mask="url(#mask0_2834_67620)">
<mask id="mask1_2834_67620" style="mask-type:alpha" maskUnits="userSpaceOnUse" x="-1" y="-2" width="242" height="242">
<rect x="-1" y="-2" width="242" height="242" fill="#C4C4C4"/>
</mask>
<g mask="url(#mask1_2834_67620)">
<ellipse opacity="0.2" cx="120" cy="211" rx="120" ry="25" transform="rotate(-180 120 211)" fill="url(#paint0_linear_2834_67620)"/>
<path opacity="0.5" fill-rule="evenodd" clip-rule="evenodd" d="M201 121H44V205H44.6073C44.2065 205.327 44 205.661 44 206C44 210.418 79.1456 214 122.5 214C165.854 214 201 210.418 201 206C201 205.661 200.794 205.327 200.393 205H201V121Z" fill="white"/>
<path d="M152.5 157.534C152.713 157.434 152.949 157.393 153.183 157.415C153.417 157.437 153.641 157.521 153.833 157.659C154.024 157.796 154.177 157.983 154.276 158.199C154.374 158.416 154.414 158.655 154.393 158.892C153.972 164.103 152.031 176.077 143.117 176.077C141.05 176.039 139.081 175.179 137.632 173.682C136.184 172.186 135.373 170.173 135.373 168.076C135.373 165.979 136.184 163.965 137.632 162.469C139.081 160.972 141.05 160.112 143.117 160.074C146.38 159.873 149.571 159.009 152.5 157.534V157.534Z" fill="white"/>
<path d="M116.318 182.746C116.087 182.782 115.871 182.879 115.688 183.026C115.506 183.173 115.365 183.366 115.279 183.585C115.193 183.805 115.164 184.043 115.197 184.277C115.229 184.511 115.321 184.733 115.463 184.92C118.141 188.383 124.271 194.971 130.063 191.211C130.762 190.759 131.366 190.172 131.841 189.484C132.316 188.795 132.653 188.018 132.832 187.197C133.011 186.377 133.029 185.528 132.885 184.7C132.741 183.873 132.438 183.082 131.992 182.373C131.547 181.664 130.968 181.051 130.289 180.569C129.61 180.087 128.845 179.745 128.036 179.564C127.227 179.382 126.39 179.363 125.574 179.51C124.758 179.656 123.979 179.964 123.28 180.415C121.132 181.647 118.766 182.439 116.318 182.746V182.746Z" fill="white"/>
<path d="M127.709 150.873C127.005 169.748 111.699 183.473 92.9219 183.473" stroke="#00303E" stroke-width="0.095938" stroke-linecap="round" stroke-linejoin="round"/>
<path fill-rule="evenodd" clip-rule="evenodd" d="M127.854 150.329C128.32 150.361 128.709 150.594 128.982 151.051C129.948 152.665 130.919 154.275 131.889 155.886C132.091 156.221 132.292 156.557 132.499 156.888C132.689 157.192 132.742 157.497 132.522 157.808C132.324 158.087 132.042 158.164 131.642 158.035C130.609 157.703 129.576 157.375 128.549 157.025C128.051 156.855 127.575 156.847 127.073 157.02C126.057 157.371 125.031 157.686 124.009 158.019C123.678 158.127 123.365 158.145 123.119 157.833C122.903 157.559 122.905 157.255 123.145 156.855C124.307 154.915 125.471 152.977 126.639 151.042C126.91 150.593 127.301 150.345 127.854 150.329" fill="#00B8B7"/>
<path d="M153.831 157.664C153.668 157.559 153.486 157.492 153.295 157.466C152.224 163.13 149.517 170.326 142.602 170.326C141.138 170.323 139.703 169.905 138.46 169.118C137.217 168.332 136.215 167.209 135.568 165.876C135.354 166.588 135.241 167.327 135.23 168.072C135.23 170.194 136.061 172.229 137.54 173.73C139.019 175.23 141.025 176.074 143.117 176.075C152.031 176.075 153.972 164.1 154.393 158.889C154.413 158.653 154.371 158.416 154.273 158.201C154.174 157.986 154.022 157.801 153.831 157.664V157.664Z" fill="#02C988"/>
<path d="M146.416 166.283C144.214 167.151 142.226 168.496 140.59 170.225C138.955 171.954 137.711 174.024 136.947 176.291C136.606 177.29 136.433 178.34 136.436 179.397V213.354" stroke="#00303E" stroke-width="0.095938" stroke-linecap="round" stroke-linejoin="round"/>
<path d="M93.5918 206.563C93.5918 206.563 98.9474 206.563 98.9474 213.355C98.9474 213.355 98.9474 206.563 104.303 206.563" stroke="#00303E" stroke-width="0.095938" stroke-linecap="round" stroke-linejoin="round"/>
<path d="M117.691 207.922C118.08 206.777 118.798 205.777 119.753 205.051C120.708 204.324 121.855 203.905 123.047 203.847" stroke="#00303E" stroke-width="0.095938" stroke-linecap="round" stroke-linejoin="round"/>
<path d="M116.351 195.6C117.105 196.364 117.528 197.4 117.529 198.481C117.529 199.562 117.106 200.598 116.353 201.363C115.6 202.127 114.578 202.557 113.513 202.557C112.447 202.557 111.425 202.128 110.672 201.364C109.295 199.152 108.263 196.738 107.614 194.206C107.539 193.969 107.531 193.715 107.589 193.473C107.647 193.231 107.769 193.01 107.943 192.834C108.117 192.658 108.334 192.533 108.573 192.475C108.812 192.416 109.061 192.424 109.295 192.5C111.79 193.159 114.17 194.205 116.351 195.6V195.6Z" stroke="#00303E" stroke-width="0.095938" stroke-linecap="round" stroke-linejoin="round"/>
<path d="M116.219 201.502C117.182 203.009 117.694 204.767 117.692 206.564V213.355" stroke="#00303E" stroke-width="0.095938" stroke-linecap="round" stroke-linejoin="round"/>
<path d="M131.995 182.385C131.556 181.688 130.987 181.085 130.321 180.608C130.355 181.71 130.105 182.802 129.598 183.778C129.091 184.753 128.342 185.578 127.427 186.172C123.185 188.913 118.766 186.125 115.644 183.075C115.478 183.212 115.349 183.39 115.267 183.591C115.18 183.811 115.152 184.051 115.186 184.286C115.219 184.521 115.312 184.743 115.457 184.93C118.135 188.394 124.264 194.982 130.056 191.222C131.468 190.31 132.465 188.868 132.829 187.21C133.193 185.553 132.893 183.817 131.995 182.385Z" fill="#02C988"/>
<path d="M152.5 157.534C152.713 157.434 152.949 157.393 153.183 157.415C153.417 157.437 153.641 157.521 153.833 157.659C154.024 157.796 154.177 157.983 154.276 158.199C154.374 158.416 154.414 158.655 154.393 158.892C153.972 164.103 152.031 176.077 143.117 176.077C141.05 176.039 139.081 175.179 137.632 173.682C136.184 172.186 135.373 170.173 135.373 168.076C135.373 165.979 136.184 163.965 137.632 162.469C139.081 160.972 141.05 160.112 143.117 160.074C146.38 159.873 149.571 159.009 152.5 157.534V157.534Z" stroke="#00303E" stroke-width="0.095938" stroke-linecap="round" stroke-linejoin="round"/>
<path d="M116.318 182.746C116.087 182.782 115.871 182.879 115.688 183.026C115.506 183.173 115.365 183.366 115.279 183.585C115.193 183.805 115.164 184.043 115.197 184.277C115.229 184.511 115.321 184.733 115.463 184.92C118.141 188.383 124.271 194.971 130.063 191.211C130.762 190.759 131.366 190.172 131.841 189.484C132.316 188.795 132.653 188.018 132.832 187.197C133.011 186.377 133.029 185.528 132.885 184.7C132.741 183.873 132.438 183.082 131.992 182.373C131.547 181.664 130.968 181.051 130.289 180.569C129.61 180.087 128.845 179.745 128.036 179.564C127.227 179.382 126.39 179.363 125.574 179.51C124.758 179.656 123.979 179.964 123.28 180.415C121.132 181.647 118.766 182.439 116.318 182.746V182.746Z" stroke="#00303E" stroke-width="0.095938" stroke-linecap="round" stroke-linejoin="round"/>
<path d="M124.146 185.771C126 185.396 127.911 185.437 129.748 185.89C131.584 186.342 133.3 187.196 134.777 188.392C135.43 188.918 135.991 189.55 136.438 190.264" stroke="#00303E" stroke-width="0.095938" stroke-linecap="round" stroke-linejoin="round"/>
<path d="M125.167 194.221C129.872 194.221 133.687 190.41 133.687 185.708C133.687 181.006 129.872 177.195 125.167 177.195C120.461 177.195 116.646 181.006 116.646 185.708C116.646 190.41 120.461 194.221 125.167 194.221Z" fill="#02C988"/>
<path d="M123.538 193.774C118.796 193.774 114.943 189.925 114.943 185.187C114.943 180.449 118.796 176.6 123.538 176.6C128.279 176.6 132.132 180.449 132.132 185.187C132.132 189.925 128.279 193.774 123.538 193.774Z" fill="white"/>
<path d="M121.248 181.889L125.539 181.889" stroke="white" stroke-width="0.191876" stroke-linecap="round" stroke-linejoin="round"/>
<path d="M121.248 184.033L125.539 184.033" stroke="white" stroke-width="0.191876" stroke-linecap="round" stroke-linejoin="round"/>
<path d="M122.679 181.889C123.248 181.889 123.793 182.115 124.196 182.517C124.598 182.92 124.824 183.465 124.824 184.034C124.824 184.603 124.598 185.149 124.196 185.551C123.793 185.954 123.248 186.18 122.679 186.18L121.248 186.18L124.824 189.756" stroke="white" stroke-width="0.191876" stroke-linecap="round" stroke-linejoin="round"/>
<path d="M123.537 176.635C128.242 176.635 132.058 180.448 132.058 185.148C132.058 189.849 128.242 193.662 123.537 193.662C118.833 193.662 115.017 189.849 115.017 185.148C115.017 180.448 118.833 176.635 123.537 176.635ZM123.537 176.524C118.759 176.524 114.869 180.41 114.869 185.185C114.869 189.96 118.759 193.847 123.537 193.847C128.316 193.847 132.206 189.96 132.206 185.185C132.206 180.41 128.316 176.524 123.537 176.524Z" fill="#282C3F"/>
<path d="M122.5 138.25C144.189 138.25 163.831 136.458 178.058 133.559C185.169 132.109 190.94 130.38 194.94 128.453C196.939 127.49 198.508 126.471 199.582 125.402C200.655 124.332 201.25 123.194 201.25 122C201.25 120.806 200.655 119.668 199.582 118.598C198.508 117.529 196.939 116.51 194.94 115.547C190.94 113.62 185.169 111.891 178.058 110.441C163.831 107.542 144.189 105.75 122.5 105.75C100.811 105.75 81.1688 107.542 66.9422 110.441C59.831 111.891 54.0598 113.62 50.0604 115.547C48.0613 116.51 46.4916 117.529 45.4184 118.598C44.3446 119.668 43.75 120.806 43.75 122C43.75 123.194 44.3446 124.332 45.4184 125.402C46.4916 126.471 48.0613 127.49 50.0604 128.453C54.0598 130.38 59.831 132.109 66.9422 133.559C81.1688 136.458 100.811 138.25 122.5 138.25Z" fill="white" stroke="#282C3F" stroke-width="0.5"/>
<path d="M200.518 121.571V207.261" stroke="black" stroke-width="0.5" stroke-linecap="round"/>
<path d="M44.1191 121.571V207.261" stroke="black" stroke-width="0.5" stroke-linecap="round"/>
</g>
<path d="M139.652 -7.16249H139.516V-7.02594V19.9052V20.0417H139.652H153.73V33.9823H138.156H138.02V34.1188V122.653V122.79H138.156H162.843H162.98V122.653V20.4256V20.3598L162.928 20.3188L140.862 2.73098V-7.02594V-7.16249H140.726H139.652Z" fill="white" stroke="#282C3F" stroke-width="0.273094"/>
<path d="M153.857 34.2716H153.994V34.1351V19.9214V19.7849H153.857H141.433H141.296V19.9214V34.1351V34.2716H141.433H153.857Z" fill="#E6FAF3" stroke="#282C3F" stroke-width="0.273094"/>
<path d="M138.171 122.632H158.109V38.4237H138.171V122.632Z" fill="#02C988" stroke="#282C3F" stroke-width="0.273094" stroke-miterlimit="10"/>
<path d="M155.232 41.2742H138.514" stroke="#282C3F" stroke-width="0.273094" stroke-miterlimit="10"/>
<path d="M155.232 45.763H138.514" stroke="#282C3F" stroke-width="0.273094" stroke-miterlimit="10"/>
<path d="M155.232 50.2515H138.514" stroke="#282C3F" stroke-width="0.273094" stroke-miterlimit="10"/>
<path d="M155.232 54.7726H138.514" stroke="#282C3F" stroke-width="0.273094" stroke-miterlimit="10"/>
<path d="M155.232 59.261H138.514" stroke="#282C3F" stroke-width="0.273094" stroke-miterlimit="10"/>
<path d="M155.232 63.7495H138.514" stroke="#282C3F" stroke-width="0.273094" stroke-miterlimit="10"/>
<path d="M155.232 68.2706H138.514" stroke="#282C3F" stroke-width="0.273094" stroke-miterlimit="10"/>
<path d="M155.232 72.7591H138.514" stroke="#282C3F" stroke-width="0.273094" stroke-miterlimit="10"/>
<path d="M155.232 77.2476H138.514" stroke="#282C3F" stroke-width="0.273094" stroke-miterlimit="10"/>
<path d="M155.232 81.7686H138.514" stroke="#282C3F" stroke-width="0.273094" stroke-miterlimit="10"/>
<path d="M155.232 86.2571H138.514" stroke="#282C3F" stroke-width="0.273094" stroke-miterlimit="10"/>
<path d="M155.232 90.7456H138.514" stroke="#282C3F" stroke-width="0.273094" stroke-miterlimit="10"/>
<path d="M155.232 95.2341H138.514" stroke="#282C3F" stroke-width="0.273094" stroke-miterlimit="10"/>
<path d="M155.232 99.7552H138.514" stroke="#282C3F" stroke-width="0.273094" stroke-miterlimit="10"/>
<path d="M155.232 104.244H138.514" stroke="#282C3F" stroke-width="0.273094" stroke-miterlimit="10"/>
<path d="M155.232 108.732H138.514" stroke="#282C3F" stroke-width="0.273094" stroke-miterlimit="10"/>
<path d="M155.232 113.253H138.514" stroke="#282C3F" stroke-width="0.273094" stroke-miterlimit="10"/>
<path d="M155.232 117.742H138.514" stroke="#282C3F" stroke-width="0.273094" stroke-miterlimit="10"/>
<path d="M128.3 59.8465H111.582" stroke="#282C3F" stroke-width="0.273094" stroke-miterlimit="10"/>
<path d="M128.3 63.7495H111.582" stroke="#282C3F" stroke-width="0.273094" stroke-miterlimit="10"/>
<path d="M128.3 67.6525H111.582" stroke="#282C3F" stroke-width="0.273094" stroke-miterlimit="10"/>
<path d="M128.3 83.1997H111.582" stroke="#282C3F" stroke-width="0.273094" stroke-miterlimit="10"/>
<path d="M128.3 87.1027H111.582" stroke="#282C3F" stroke-width="0.273094" stroke-miterlimit="10"/>
<path d="M128.3 90.9734H111.582" stroke="#282C3F" stroke-width="0.273094" stroke-miterlimit="10"/>
<path d="M128.3 94.8765H111.582" stroke="#282C3F" stroke-width="0.273094" stroke-miterlimit="10"/>
<path d="M128.3 98.7469H111.582" stroke="#282C3F" stroke-width="0.273094" stroke-miterlimit="10"/>
<path d="M128.3 102.65H111.582" stroke="#282C3F" stroke-width="0.273094" stroke-miterlimit="10"/>
<path d="M128.3 106.553H111.582" stroke="#282C3F" stroke-width="0.273094" stroke-miterlimit="10"/>
<path d="M128.3 110.424H111.582" stroke="#282C3F" stroke-width="0.273094" stroke-miterlimit="10"/>
<path d="M128.3 114.327H111.582" stroke="#282C3F" stroke-width="0.273094" stroke-miterlimit="10"/>
<path d="M128.3 118.197H111.582" stroke="#282C3F" stroke-width="0.273094" stroke-miterlimit="10"/>
<path d="M139.652 14.0441H139.516V14.1807V16.0997V16.2362H139.652H149.052H149.189V16.0997V14.1807V14.0441H149.052H139.652Z" fill="white" stroke="#282C3F" stroke-width="0.273094"/>
<path d="M144.855 19.9701V34.0537" stroke="#282C3F" stroke-width="0.273094"/>
<path d="M149.051 19.9701V34.0537" stroke="#282C3F" stroke-width="0.273094"/>
<path d="M150.379 19.9375V20.074H150.516H153.729V34.0146H150.516H150.379V34.1511V122.685V122.822H150.516H162.843H162.979V122.685V20.4579V20.3922L162.928 20.3512L150.601 10.496L150.379 10.3187V10.6027V19.9375Z" fill="white" stroke="#282C3F" stroke-width="0.273094"/>
<path d="M90.5488 59.3487H90.4123V59.4852V87.0343V87.1709H90.5488H131.954H132.09V87.0343V59.4852V59.3487H131.954H90.5488Z" fill="white" stroke="#282C3F" stroke-width="0.273094"/>
<path d="M97.0117 73.0304H96.8752V73.1669V76.4016V76.5381H97.0117H99.9719H100.108V76.4016V73.1669V73.0304H99.9719H97.0117Z" fill="white" stroke="#282C3F" stroke-width="0.273094"/>
<path d="M102.188 73.0303H102.051V73.1669V76.4015V76.5381H102.188H105.148H105.284V76.4015V73.1669V73.0303H105.148H102.188Z" fill="white" stroke="#282C3F" stroke-width="0.273094"/>
<path d="M97.0117 66.1088H96.8752V66.2454V69.48V69.6166H97.0117H99.9719H100.108V69.48V66.2454V66.1088H99.9719H97.0117Z" fill="white" stroke="#282C3F" stroke-width="0.273094"/>
<path d="M102.188 66.1088H102.051V66.2454V69.48V69.6166H102.188H105.148H105.284V69.48V66.2454V66.1088H105.148H102.188Z" fill="white" stroke="#282C3F" stroke-width="0.273094"/>
<path d="M97.0117 80.1049H96.8752V80.2415V83.4761V83.6126H97.0117H99.9719H100.108V83.4761V80.2415V80.1049H99.9719H97.0117Z" fill="white" stroke="#282C3F" stroke-width="0.273094"/>
<path d="M102.188 80.1049H102.051V80.2415V83.4761V83.6126H102.188H105.148H105.284V83.4761V80.2415V80.1049H105.148H102.188Z" fill="white" stroke="#282C3F" stroke-width="0.273094"/>
<path d="M107.42 73.0304H107.283V73.1669V76.4016V76.5381H107.42H110.38H110.517V76.4016V73.1669V73.0304H110.38H107.42Z" fill="white" stroke="#282C3F" stroke-width="0.273094"/>
<path d="M112.596 73.0303H112.459V73.1669V76.4015V76.5381H112.596H115.556H115.692V76.4015V73.1669V73.0303H115.556H112.596Z" fill="white" stroke="#282C3F" stroke-width="0.273094"/>
<path d="M107.42 66.1088H107.283V66.2454V69.48V69.6166H107.42H110.38H110.517V69.48V66.2454V66.1088H110.38H107.42Z" fill="white" stroke="#282C3F" stroke-width="0.273094"/>
<path d="M112.596 66.1088H112.459V66.2454V69.48V69.6166H112.596H115.556H115.692V69.48V66.2454V66.1088H115.556H112.596Z" fill="white" stroke="#282C3F" stroke-width="0.273094"/>
<path d="M107.42 80.1049H107.283V80.2415V83.4761V83.6126H107.42H110.38H110.517V83.4761V80.2415V80.1049H110.38H107.42Z" fill="white" stroke="#282C3F" stroke-width="0.273094"/>
<path d="M112.596 80.1049H112.459V80.2415V83.4761V83.6126H112.596H115.556H115.692V83.4761V80.2415V80.1049H115.556H112.596Z" fill="white" stroke="#282C3F" stroke-width="0.273094"/>
<path d="M118.154 73.0304H118.018V73.1669V76.4016V76.5381H118.154H121.114H121.251V76.4016V73.1669V73.0304H121.114H118.154Z" fill="white" stroke="#282C3F" stroke-width="0.273094"/>
<path d="M123.33 73.0303H123.194V73.1669V76.4015V76.5381H123.33H126.29H126.427V76.4015V73.1669V73.0303H126.29H123.33Z" fill="white" stroke="#282C3F" stroke-width="0.273094"/>
<path d="M118.154 66.1088H118.018V66.2454V69.48V69.6166H118.154H121.114H121.251V69.48V66.2454V66.1088H121.114H118.154Z" fill="white" stroke="#282C3F" stroke-width="0.273094"/>
<path d="M123.33 66.1088H123.194V66.2454V69.48V69.6166H123.33H126.29H126.427V69.48V66.2454V66.1088H126.29H123.33Z" fill="white" stroke="#282C3F" stroke-width="0.273094"/>
<path d="M118.154 80.1049H118.018V80.2415V83.4761V83.6126H118.154H121.114H121.251V83.4761V80.2415V80.1049H121.114H118.154Z" fill="white" stroke="#282C3F" stroke-width="0.273094"/>
<path d="M123.33 80.1049H123.194V80.2415V83.4761V83.6126H123.33H126.29H126.427V83.4761V80.2415V80.1049H126.29H123.33Z" fill="white" stroke="#282C3F" stroke-width="0.273094"/>
<path d="M142.812 57.6678C143.019 55.953 142.307 54.2255 140.875 52.5756C139.444 50.9257 137.284 49.3414 134.563 47.9046C129.122 45.0305 121.412 42.7329 112.723 41.687C104.035 40.6412 95.9998 41.0437 90.0315 42.5444C87.0479 43.2946 84.5734 44.3211 82.7914 45.5842C81.0094 46.8473 79.9076 48.3565 79.7012 50.0713C79.4948 51.7861 80.2069 53.5136 81.6384 55.1635C83.0697 56.8134 85.23 58.3977 87.9504 59.8345C93.3921 62.7086 101.102 65.0063 109.79 66.0521C118.479 67.0979 126.514 66.6954 132.482 65.1947C135.466 64.4445 137.94 63.418 139.722 62.1549C141.504 60.8918 142.606 59.3826 142.812 57.6678Z" fill="#02C988" stroke="#282C3F" stroke-width="0.273094"/>
<path d="M136.932 54.7372C136.986 54.2942 136.844 53.8489 136.547 53.4121C136.25 52.9762 135.793 52.5418 135.2 52.1133C134.014 51.2563 132.259 50.4064 130.073 49.6084C125.698 48.0118 119.564 46.6129 112.706 45.7875C105.849 44.9621 99.5581 44.8655 94.9292 45.3783C92.6159 45.6347 90.71 46.044 89.3542 46.595C88.6764 46.8706 88.1295 47.1841 87.7375 47.5371C87.3447 47.8908 87.1017 48.2898 87.0484 48.7328C86.995 49.1759 87.1364 49.6212 87.4341 50.058C87.7311 50.4939 88.188 50.9283 88.7811 51.3568C89.9673 52.2138 91.7217 53.0637 93.9081 53.8616C98.2831 55.4583 104.417 56.8571 111.275 57.6825C118.132 58.5079 124.423 58.6046 129.052 58.0917C131.365 57.8354 133.271 57.4261 134.627 56.875C135.304 56.5995 135.851 56.286 136.243 55.933C136.636 55.5793 136.879 55.1803 136.932 54.7372Z" fill="white" stroke="#282C3F" stroke-width="0.273094"/>
<path d="M131.698 57.8882C127.01 58.8078 119.563 58.8751 111.287 57.8882C102.629 56.8564 95.16 54.905 90.8984 52.7742C95.5862 51.8546 103.033 51.7873 111.309 52.7742C119.967 53.8284 127.458 55.7798 131.698 57.8882Z" fill="#00357C"/>
<path d="M92.6641 74.7658H92.5275V74.9023V123.04V123.177H92.6641H141.452H141.589V123.04V74.9023V74.7658H141.452H92.6641Z" fill="white" stroke="#282C3F" stroke-width="0.273094"/>
<path d="M105.51 78.2525H97.3789V102.321H105.51V78.2525Z" fill="#E5F1FF"/>
<path d="M121.319 78.2525H113.188V102.321H121.319V78.2525Z" fill="#E5F1FF"/>
<path d="M137.159 78.2525H129.027V102.321H137.159V78.2525Z" fill="#E5F1FF"/>
<path d="M137.159 78.2525H134.102V102.321H137.159V78.2525Z" fill="#02C988"/>
<path d="M121.319 78.2525H118.262V102.321H121.319V78.2525Z" fill="#02C988"/>
<path d="M105.511 78.2525H102.453V102.321H105.511V78.2525Z" fill="#02C988"/>
<path d="M92.4227 74.9023H83.4707V123.685H92.4227V74.9023Z" fill="#02C988"/>
<path opacity="0.2" d="M137.126 78.2525L134.101 84.1396H129.125L129.027 78.2525H137.126Z" fill="#282C3F"/>
<path opacity="0.2" d="M121.319 78.2525L118.261 84.1396H113.318L113.188 78.2525H121.319Z" fill="#282C3F"/>
<path opacity="0.2" d="M105.478 78.2525L102.453 84.1396H97.4765L97.3789 78.2525H105.478Z" fill="#282C3F"/>
</g>
<defs>
<linearGradient id="paint0_linear_2834_67620" x1="120" y1="186" x2="120" y2="236" gradientUnits="userSpaceOnUse">
<stop stop-color="#02C988"/>
<stop offset="1" stop-color="#02C988" stop-opacity="0"/>
</linearGradient>
</defs>
</svg>
