<svg width="240" height="240" viewBox="0 0 240 240" fill="none" xmlns="http://www.w3.org/2000/svg">
<mask id="mask0_1882_51789" style="mask-type:alpha" maskUnits="userSpaceOnUse" x="0" y="0" width="240" height="240">
<rect width="240" height="240" fill="#C4C4C4"/>
</mask>
<g mask="url(#mask0_1882_51789)">
<ellipse cx="120" cy="190.5" rx="120" ry="30.5" transform="rotate(-180 120 190.5)" fill="url(#paint0_linear_1882_51789)" fill-opacity="0.3"/>
<path opacity="0.5" fill-rule="evenodd" clip-rule="evenodd" d="M199.578 73.9805H39.5996V188.024H41.6232C41.3305 188.362 41.1805 188.705 41.1805 189.053C41.1805 194.422 77.0281 198.775 121.248 198.775C165.469 198.775 201.316 194.422 201.316 189.053C201.316 188.359 200.717 187.681 199.578 187.028V73.9805Z" fill="white"/>
<path d="M157.163 117.117C157.425 116.995 157.715 116.945 158.002 116.972C158.289 116.999 158.565 117.102 158.8 117.271C159.036 117.44 159.224 117.669 159.344 117.935C159.465 118.201 159.515 118.494 159.488 118.786C158.972 125.184 156.588 139.89 145.64 139.89C143.102 139.843 140.684 138.787 138.906 136.949C137.127 135.111 136.131 132.639 136.131 130.063C136.131 127.488 137.127 125.016 138.906 123.178C140.684 121.34 143.102 120.284 145.64 120.237C149.648 119.99 153.567 118.929 157.163 117.117Z" fill="white"/>
<path d="M112.727 148.08C112.444 148.125 112.178 148.243 111.954 148.424C111.73 148.605 111.557 148.842 111.451 149.111C111.345 149.381 111.31 149.673 111.35 149.961C111.39 150.248 111.503 150.52 111.678 150.749C114.966 155.003 122.493 163.093 129.607 158.476C130.465 157.921 131.207 157.2 131.79 156.354C132.374 155.509 132.787 154.555 133.007 153.547C133.227 152.539 133.249 151.497 133.072 150.48C132.895 149.464 132.523 148.492 131.976 147.622C131.429 146.751 130.718 145.999 129.885 145.407C129.051 144.815 128.111 144.395 127.117 144.172C126.124 143.949 125.096 143.926 124.094 144.106C123.092 144.285 122.135 144.663 121.277 145.218C118.639 146.73 115.734 147.703 112.727 148.08Z" fill="white"/>
<path d="M126.717 108.937C125.852 132.117 107.055 148.971 83.9961 148.971" stroke="#00303E" stroke-width="0.5" stroke-linecap="round" stroke-linejoin="round"/>
<path fill-rule="evenodd" clip-rule="evenodd" d="M126.894 108.27C127.466 108.309 127.943 108.595 128.279 109.156C129.465 111.138 130.658 113.115 131.849 115.094C132.096 115.506 132.344 115.918 132.598 116.325C132.831 116.698 132.896 117.073 132.626 117.454C132.383 117.797 132.037 117.891 131.545 117.733C130.277 117.326 129.008 116.922 127.747 116.493C127.135 116.284 126.551 116.274 125.934 116.487C124.687 116.918 123.426 117.305 122.172 117.714C121.765 117.846 121.381 117.868 121.079 117.485C120.813 117.149 120.817 116.775 121.111 116.284C122.537 113.902 123.968 111.522 125.402 109.145C125.734 108.594 126.214 108.289 126.894 108.27Z" fill="#00B8B7"/>
<path d="M158.793 117.278C158.594 117.149 158.369 117.066 158.135 117.034C156.82 123.99 153.495 132.828 145.004 132.828C143.206 132.824 141.444 132.31 139.917 131.344C138.391 130.379 137.161 129 136.366 127.363C136.103 128.237 135.964 129.145 135.951 130.059C135.951 132.665 136.971 135.164 138.788 137.007C140.604 138.85 143.067 139.886 145.636 139.887C156.583 139.887 158.967 125.181 159.484 118.782C159.508 118.492 159.457 118.201 159.336 117.937C159.215 117.673 159.028 117.446 158.793 117.278Z" fill="#FFA6A6"/>
<path d="M149.688 127.863C146.984 128.929 144.543 130.581 142.534 132.704C140.525 134.827 138.998 137.369 138.06 140.154C137.641 141.38 137.429 142.669 137.432 143.967V185.669" stroke="#00303E" stroke-width="0.5" stroke-linecap="round" stroke-linejoin="round"/>
<path d="M84.8184 177.329C84.8184 177.329 91.3954 177.329 91.3954 185.669C91.3954 185.669 91.3954 177.329 97.9724 177.329" stroke="#00303E" stroke-width="0.5" stroke-linecap="round" stroke-linejoin="round"/>
<path d="M114.416 178.997C114.894 177.591 115.776 176.363 116.948 175.471C118.12 174.579 119.529 174.064 120.993 173.992" stroke="#00303E" stroke-width="0.5" stroke-linecap="round" stroke-linejoin="round"/>
<path d="M112.769 163.864C113.694 164.802 114.214 166.075 114.214 167.402C114.215 168.73 113.695 170.003 112.77 170.942C111.845 171.88 110.591 172.408 109.282 172.408C107.974 172.409 106.719 171.882 105.794 170.943C104.103 168.227 102.836 165.261 102.038 162.152C101.947 161.861 101.936 161.55 102.008 161.252C102.079 160.955 102.229 160.684 102.443 160.467C102.656 160.251 102.923 160.099 103.216 160.026C103.509 159.954 103.816 159.965 104.103 160.057C107.167 160.867 110.09 162.151 112.769 163.864V163.864Z" stroke="#00303E" stroke-width="0.5" stroke-linecap="round" stroke-linejoin="round"/>
<path d="M112.605 171.113C113.789 172.964 114.417 175.123 114.414 177.329V185.669" stroke="#00303E" stroke-width="0.5" stroke-linecap="round" stroke-linejoin="round"/>
<path d="M131.978 147.637C131.438 146.782 130.74 146.041 129.923 145.455C129.964 146.809 129.658 148.15 129.035 149.347C128.411 150.545 127.493 151.558 126.368 152.287C121.159 155.654 115.733 152.231 111.898 148.484C111.695 148.654 111.535 148.871 111.435 149.118C111.328 149.389 111.294 149.683 111.335 149.972C111.376 150.261 111.491 150.533 111.668 150.763C114.957 155.016 122.484 163.107 129.597 158.489C131.331 157.37 132.556 155.598 133.002 153.563C133.449 151.528 133.08 149.396 131.978 147.637Z" fill="#FFA6A6"/>
<path d="M157.163 117.117C157.425 116.995 157.715 116.945 158.002 116.972C158.289 116.999 158.565 117.102 158.8 117.271C159.036 117.44 159.224 117.669 159.344 117.935C159.465 118.201 159.515 118.494 159.488 118.786C158.972 125.184 156.588 139.89 145.64 139.89C143.102 139.843 140.684 138.787 138.906 136.949C137.127 135.111 136.131 132.639 136.131 130.063C136.131 127.488 137.127 125.016 138.906 123.178C140.684 121.34 143.102 120.284 145.64 120.237C149.648 119.99 153.567 118.929 157.163 117.117V117.117Z" stroke="#00303E" stroke-width="0.5" stroke-linecap="round" stroke-linejoin="round"/>
<path d="M112.727 148.08C112.444 148.125 112.178 148.243 111.954 148.424C111.73 148.605 111.557 148.842 111.451 149.111C111.345 149.381 111.31 149.673 111.35 149.961C111.39 150.248 111.503 150.52 111.678 150.749C114.966 155.003 122.493 163.093 129.607 158.476C130.465 157.921 131.207 157.2 131.79 156.354C132.374 155.509 132.787 154.555 133.007 153.547C133.227 152.539 133.249 151.497 133.072 150.48C132.895 149.464 132.523 148.492 131.976 147.622C131.429 146.751 130.718 145.999 129.885 145.407C129.051 144.815 128.111 144.395 127.117 144.172C126.124 143.949 125.096 143.926 124.094 144.106C123.092 144.285 122.135 144.663 121.277 145.218C118.639 146.73 115.734 147.703 112.727 148.08V148.08Z" stroke="#00303E" stroke-width="0.5" stroke-linecap="round" stroke-linejoin="round"/>
<path d="M122.342 151.794C124.618 151.334 126.965 151.384 129.22 151.94C131.475 152.496 133.583 153.545 135.397 155.013C136.198 155.659 136.887 156.436 137.436 157.312" stroke="#00303E" stroke-width="0.5" stroke-linecap="round" stroke-linejoin="round"/>
<path d="M123.594 162.173C129.373 162.173 134.057 157.492 134.057 151.718C134.057 145.944 129.373 141.264 123.594 141.264C117.815 141.264 113.131 145.944 113.131 151.718C113.131 157.492 117.815 162.173 123.594 162.173Z" fill="#FFA6A6"/>
<path d="M121.591 161.624C115.768 161.624 111.037 156.897 111.037 151.079C111.037 145.26 115.768 140.533 121.591 140.533C127.414 140.533 132.146 145.26 132.146 151.079C132.146 156.897 127.414 161.624 121.591 161.624Z" fill="white"/>
<path d="M118.781 147.029L124.051 147.029" stroke="white" stroke-linecap="round" stroke-linejoin="round"/>
<path d="M118.781 149.661L124.051 149.661" stroke="white" stroke-linecap="round" stroke-linejoin="round"/>
<path d="M120.538 147.029C121.237 147.029 121.907 147.306 122.401 147.8C122.895 148.294 123.173 148.965 123.173 149.663C123.173 150.362 122.895 151.032 122.401 151.527C121.907 152.021 121.237 152.298 120.538 152.298L118.781 152.298L123.173 156.69" stroke="white" stroke-linecap="round" stroke-linejoin="round"/>
<path d="M121.592 140.577C127.37 140.577 132.056 145.259 132.056 151.031C132.056 156.804 127.37 161.486 121.592 161.486C115.815 161.486 111.129 156.804 111.129 151.031C111.129 145.259 115.815 140.577 121.592 140.577ZM121.592 140.44C115.724 140.44 110.947 145.213 110.947 151.077C110.947 156.941 115.724 161.713 121.592 161.713C127.461 161.713 132.238 156.941 132.238 151.077C132.238 145.213 127.461 140.44 121.592 140.44Z" fill="#282C3F"/>
<path d="M120.107 92.3122C142.232 92.3122 162.27 90.0705 176.784 86.4419C184.04 84.6281 189.929 82.4643 194.01 80.0519C198.075 77.6495 200.425 74.9519 200.425 72.0452C200.425 69.1385 198.075 66.4409 194.01 64.0385C189.929 61.6261 184.04 59.4623 176.784 57.6485C162.27 54.0199 142.232 51.7782 120.107 51.7782C97.9826 51.7782 77.9443 54.0199 63.4298 57.6485C56.1745 59.4623 50.2853 61.6261 46.204 64.0385C42.1394 66.4409 39.7891 69.1385 39.7891 72.0452C39.7891 74.9519 42.1394 77.6495 46.204 80.0519C50.2853 82.4643 56.1745 84.6281 63.4298 86.4419C77.9443 90.0705 97.9826 92.3122 120.107 92.3122Z" fill="white" stroke="#282C3F" stroke-width="0.5"/>
<path d="M77.77 75.2659C72.5576 74.0461 69.3175 68.8168 70.5329 63.5858C71.7484 58.3549 76.9592 55.1032 82.1715 56.323C87.3839 57.5428 90.6241 62.7721 89.4086 68.0031C88.1931 73.234 82.9824 76.4857 77.77 75.2659Z" fill="#282C3F" stroke="#282C3F" stroke-width="0.5" stroke-miterlimit="10"/>
<path d="M140.882 72.651C137.098 68.8531 137.098 62.6955 140.882 58.8976C144.667 55.0996 150.803 55.0996 154.587 58.8976C158.372 62.6955 158.372 68.8531 154.587 72.651C150.803 76.4489 144.667 76.4489 140.882 72.651Z" fill="#282C3F" stroke="#282C3F" stroke-width="0.5" stroke-miterlimit="10"/>
<path d="M86.5229 47.3903C86.5229 47.3903 89.0902 45.7936 100.806 41.9107C112.522 38.0279 120.079 36.7215 131.65 37.0481C143.221 37.3747 158.806 41.7293 161.699 42.8542C164.591 43.9791 165.857 44.3057 165.242 45.1041C164.591 45.9024 161.084 48.8055 161.554 50.1119C161.988 51.4183 169.871 58.4945 170.341 59.6194C170.811 60.7443 168.75 64.6272 168.424 65.5707C168.099 66.5505 166.327 66.8771 164.881 67.0222C163.434 67.1674 60.6688 67.0222 60.6688 67.0222C60.6688 67.0222 59.2224 65.2441 59.5479 62.9942C59.8733 60.7443 60.1988 57.7687 61.6451 55.8454C62.8022 54.285 64.0317 52.6521 67.0691 52.3617C68.9855 52.1803 86.0167 47.5354 86.5229 47.3903Z" fill="#FFA6A6"/>
<path d="M86.5229 47.3911C86.5229 47.3911 89.0902 45.7944 100.806 41.9116C112.522 38.0287 120.079 36.7223 131.65 37.0489C143.221 37.3755 158.806 41.7301 161.699 42.8551C164.591 43.98 165.857 44.3066 165.242 45.1049C164.591 45.9033 161.084 48.8063 161.554 50.1127C161.988 51.4191 169.871 58.4953 170.341 59.6203C170.811 60.7452 168.75 64.628 168.424 65.5715C168.099 66.5513 166.327 66.8779 164.881 67.0231C163.434 67.1682 60.6688 67.0231 60.6688 67.0231C60.6688 67.0231 59.2224 65.2449 59.5479 62.9951C59.8733 60.7452 60.1988 57.7696 61.6451 55.8463C62.8022 54.2859 64.0317 52.6529 67.0691 52.3626C68.9855 52.1812 86.0167 47.5363 86.5229 47.3911Z" fill="white"/>
<path d="M86.5229 47.3903C86.5229 47.3903 89.0902 45.7936 100.806 41.9107C112.522 38.0279 120.079 36.7215 131.65 37.0481C143.221 37.3747 158.806 41.7293 161.699 42.8542C164.591 43.9791 165.857 44.3057 165.242 45.1041C164.591 45.9024 161.084 48.8055 161.554 50.1119C161.988 51.4183 169.871 58.4945 170.341 59.6194C170.811 60.7443 168.75 64.6272 168.424 65.5707C168.099 66.5505 166.327 66.8771 164.881 67.0222C163.434 67.1674 60.6688 67.0222 60.6688 67.0222C60.6688 67.0222 59.2224 65.2441 59.5479 62.9942C59.8733 60.7443 60.1987 57.7687 61.6451 55.8454C62.8022 54.285 64.0317 52.6521 67.0691 52.3617C68.9855 52.1803 86.0167 47.5354 86.5229 47.3903Z" stroke="#282C3F" stroke-width="0.5" stroke-miterlimit="10"/>
<path d="M60.6351 58.6381H66.7461V60.2347H60.6351V58.6381Z" fill="#282C3F" stroke="#282C3F" stroke-width="0.5" stroke-miterlimit="10"/>
<path d="M69.6719 55.88H68.6956C67.43 55.88 66.2729 56.6421 65.8028 57.8396L64.8265 60.2709H68.0085L69.6719 55.88Z" fill="white" stroke="#282C3F" stroke-width="0.5" stroke-miterlimit="10"/>
<path d="M60.7407 57.5135C60.7768 57.6224 60.813 57.7313 60.8491 57.8401L61.5 60.2715H59.9813C60.126 59.328 60.3791 58.3845 60.7407 57.5135Z" fill="white" stroke="#282C3F" stroke-width="0.5" stroke-miterlimit="10"/>
<path d="M86.5214 47.3881C86.5214 47.3881 89.0887 45.7914 100.804 41.9086C103.48 41.0376 105.939 40.2756 108.289 39.6587H116.57L118.342 40.1304L94.585 47.3881H86.5214Z" fill="#FFA6A6" stroke="#282C3F" stroke-width="0.5" stroke-miterlimit="10"/>
<path d="M173.057 44.7758V55.6623C173.057 55.6623 166.439 50.219 167.271 48.6586C168.103 47.0982 173.057 44.7758 173.057 44.7758Z" fill="#777777" stroke="#282C3F" stroke-width="0.5" stroke-miterlimit="10"/>
<path d="M94.5483 47.3903C94.5483 47.3903 97.1156 45.7936 108.831 41.9107C120.547 38.0279 128.104 36.7215 139.675 37.0481C151.246 37.3747 166.831 41.7293 169.724 42.8542C172.617 43.9791 173.882 44.3057 173.268 45.1041C172.653 45.9024 169.109 48.8055 169.579 50.1119C170.013 51.4183 177.896 58.4945 178.366 59.6194C178.836 60.7443 176.775 64.6272 176.45 65.5707C176.124 66.5505 174.352 66.8771 172.906 67.0222C171.46 67.1674 68.6942 67.0222 68.6942 67.0222C68.6942 67.0222 67.2478 65.2441 67.5732 62.9942C67.8987 60.7443 68.2241 57.7687 69.6705 55.8454C70.8276 54.285 72.057 52.6521 75.0944 52.3617C77.0109 52.1803 94.0421 47.5354 94.5483 47.3903Z" fill="white"/>
<path opacity="0.15" d="M69.6705 55.8815C70.8276 54.3211 72.057 52.6881 75.0944 52.3978C75.6007 52.3615 77.1555 51.9986 79.2166 51.4906C88.9074 51.3454 94.3313 55.3008 108.831 56.6072C127.707 58.3491 140.76 53.5953 156.526 51.7083C163.071 50.91 168.386 51.8897 172.328 53.2687C174.786 55.8089 178.077 58.8934 178.366 59.6192C178.836 60.7441 176.775 64.6269 176.45 65.5704C176.124 66.5502 174.352 66.8768 172.906 67.022C171.46 67.1671 68.6942 67.022 68.6942 67.022C68.6942 67.022 67.2478 65.2438 67.5732 62.994C67.8625 60.7441 68.2241 57.7684 69.6705 55.8815Z" fill="#282C3F"/>
<path d="M94.5483 47.3903C94.5483 47.3903 97.1156 45.7936 108.831 41.9107C120.547 38.0279 128.104 36.7215 139.675 37.0481C151.246 37.3747 166.831 41.7293 169.724 42.8542C172.617 43.9791 173.882 44.3057 173.268 45.1041C172.653 45.9024 169.109 48.8055 169.579 50.1119C170.013 51.4183 177.896 58.4945 178.366 59.6194C178.836 60.7443 176.775 64.6272 176.45 65.5707C176.124 66.5505 174.352 66.8771 172.906 67.0222C171.46 67.1674 68.6942 67.0222 68.6942 67.0222C68.6942 67.0222 67.2478 65.2441 67.5732 62.9942C67.8987 60.7443 68.2241 57.7687 69.6705 55.8454C70.8276 54.285 72.057 52.6521 75.0944 52.3617C77.0109 52.1803 94.0421 47.5354 94.5483 47.3903Z" stroke="#282C3F" stroke-width="0.5" stroke-miterlimit="10"/>
<path d="M155.262 41.4427L148.825 48.2649H101.601V46.7045C101.601 46.7045 111.292 42.8942 121.525 40.8983C131.758 38.9025 134.289 39.0839 138.881 39.1565C143.51 39.2654 155.262 41.4427 155.262 41.4427Z" fill="#777777"/>
<path d="M132.227 45.2523C140.327 43.4742 146.763 45.2886 150.234 46.7401L148.824 48.2279H101.6V46.6675C101.6 46.6675 103.155 46.0506 105.722 45.1797C111.037 47.2481 121.56 47.611 132.227 45.2523Z" fill="#282C3F" stroke="#282C3F" stroke-width="0.5" stroke-miterlimit="10"/>
<path d="M155.262 41.4427L148.825 48.2649H101.601V46.7045C101.601 46.7045 111.292 42.8942 121.525 40.8983C131.758 38.9025 134.289 39.0839 138.881 39.1565C143.51 39.2654 155.262 41.4427 155.262 41.4427Z" fill="#FFA6A6" stroke="#282C3F" stroke-width="0.5" stroke-miterlimit="10"/>
<path d="M156.465 75.267C151.252 74.0521 148.007 68.8258 149.217 63.5938C150.428 58.3618 155.636 55.1053 160.849 56.3203C166.063 57.5352 169.308 62.7615 168.097 67.9935C166.886 73.2255 161.679 76.482 156.465 75.267Z" fill="#282C3F" stroke="#282C3F" stroke-width="0.5" stroke-miterlimit="10"/>
<path d="M158.658 58.7928C162.527 58.7928 165.637 61.9136 165.637 65.7965C165.637 69.6793 162.527 72.8001 158.658 72.8001C154.789 72.8001 151.679 69.6793 151.679 65.7965C151.679 61.9136 154.825 58.7928 158.658 58.7928ZM153.993 64.3812L158.043 65.1433L156.886 61.1879C155.512 61.7685 154.427 62.9297 153.993 64.3812ZM158.332 65.4336V66.1231H159.02V65.4336H158.332ZM160.068 61.079L159.309 65.1433L163.25 63.9821C162.672 62.6031 161.515 61.5145 160.068 61.079ZM163.359 67.1754L159.309 66.4134L160.466 70.3688C161.84 69.8245 162.925 68.627 163.359 67.1754ZM157.284 70.4777L158.043 66.4134L154.102 67.5746C154.644 68.9536 155.837 70.0422 157.284 70.4777Z" fill="white" stroke="#282C3F" stroke-width="0.5" stroke-miterlimit="10"/>
<path d="M156.487 65.7955C156.487 64.5979 157.463 63.6182 158.657 63.6182C159.85 63.6182 160.826 64.5979 160.826 65.7955C160.826 66.993 159.85 67.9728 158.657 67.9728C157.463 67.9728 156.487 66.993 156.487 65.7955Z" fill="white" stroke="#282C3F" stroke-width="0.5" stroke-miterlimit="10"/>
<path d="M83.7145 72.6531C79.93 68.8552 79.93 62.6976 83.7145 58.8996C87.4989 55.1017 93.6347 55.1017 97.4191 58.8996C101.204 62.6975 101.204 68.8552 97.4191 72.6531C93.6347 76.451 87.4989 76.451 83.7145 72.6531Z" fill="#282C3F" stroke="#282C3F" stroke-width="0.5" stroke-miterlimit="10"/>
<path d="M90.57 58.7854C94.4391 58.7854 97.5488 61.9062 97.5488 65.789C97.5488 69.6719 94.4391 72.7927 90.57 72.7927C86.701 72.7927 83.5912 69.6719 83.5912 65.789C83.5912 61.9062 86.7371 58.7854 90.57 58.7854ZM85.9055 64.3738L89.9553 65.1359L88.7982 61.1804C87.388 61.761 86.3032 62.9223 85.9055 64.3738ZM90.2446 65.4262V66.1156H90.9316V65.4262H90.2446ZM91.9803 61.0716L91.2209 65.1359L95.1623 63.9746C94.5837 62.5957 93.4266 61.507 91.9803 61.0716ZM95.2708 67.168L91.2209 66.4059L92.378 70.3614C93.7521 69.817 94.8369 68.6195 95.2708 67.168ZM89.196 70.4702L89.9553 66.4059L86.0139 67.5672C86.5563 68.9461 87.7496 70.0348 89.196 70.4702Z" fill="white" stroke="#282C3F" stroke-width="0.5" stroke-miterlimit="10"/>
<path d="M88.3991 65.7857C88.3991 64.5882 89.3754 63.6084 90.5687 63.6084C91.762 63.6084 92.7383 64.5882 92.7383 65.7857C92.7383 66.9832 91.762 67.963 90.5687 67.963C89.3754 67.963 88.3991 66.9832 88.3991 65.7857Z" fill="white" stroke="#282C3F" stroke-width="0.5" stroke-miterlimit="10"/>
<path d="M69.6709 55.8824C69.6709 55.8824 76.8667 55.5195 77.1921 55.8824C77.5176 56.2452 74.7694 59.1483 73.8293 59.8015C73.0699 60.3095 69.4901 60.2007 68.0076 60.1644C68.333 58.604 68.8031 57.0436 69.6709 55.8824Z" fill="white" stroke="#282C3F" stroke-width="0.5" stroke-miterlimit="10"/>
<path d="M132.737 39.2241C133.207 39.1878 133.641 39.1515 134.075 39.1515L135.305 48.2236H132.086L132.737 39.2241Z" fill="#282C3F" stroke="#282C3F" stroke-width="0.5" stroke-miterlimit="10"/>
<path d="M201.162 72.3967V191.192" stroke="black" stroke-width="0.5" stroke-linecap="round"/>
<path d="M39.5996 72.3967V191.192" stroke="black" stroke-width="0.5" stroke-linecap="round"/>
</g>
<defs>
<linearGradient id="paint0_linear_1882_51789" x1="120" y1="160" x2="120" y2="221" gradientUnits="userSpaceOnUse">
<stop stop-color="#FFA6A6"/>
<stop offset="1" stop-color="#FFA6A6" stop-opacity="0"/>
</linearGradient>
</defs>
</svg>
