<svg width="240" height="240" viewBox="0 0 240 240" fill="none" xmlns="http://www.w3.org/2000/svg">
<mask id="mask0_2126_76794" style="mask-type:alpha" maskUnits="userSpaceOnUse" x="0" y="0" width="240" height="240">
<rect width="240" height="240" fill="#C4C4C4"/>
</mask>
<g mask="url(#mask0_2126_76794)">
<ellipse opacity="0.2" cx="120" cy="208" rx="120" ry="25" transform="rotate(-180 120 208)" fill="url(#paint0_linear_2126_76794)"/>
<path opacity="0.5" fill-rule="evenodd" clip-rule="evenodd" d="M198 126H41V206H42C42 209.866 77.1456 213 120.5 213C163.854 213 199 209.866 199 206C199 205.619 198.658 205.244 198 204.88V126Z" fill="white"/>
<g clip-path="url(#clip0_2126_76794)">
<path d="M146.05 155.918C146.233 155.833 146.436 155.797 146.637 155.816C146.838 155.835 147.031 155.907 147.196 156.026C147.361 156.144 147.493 156.304 147.577 156.491C147.662 156.677 147.696 156.882 147.678 157.086C147.316 161.567 145.647 171.865 137.981 171.865C136.204 171.831 134.511 171.092 133.265 169.805C132.02 168.518 131.322 166.787 131.322 164.984C131.322 163.18 132.02 161.449 133.265 160.162C134.511 158.875 136.204 158.136 137.981 158.103C140.788 157.93 143.532 157.187 146.05 155.918Z" fill="white"/>
<path d="M114.935 177.6C114.737 177.631 114.551 177.714 114.394 177.84C114.237 177.967 114.116 178.133 114.042 178.321C113.968 178.51 113.943 178.715 113.971 178.916C113.999 179.118 114.078 179.308 114.201 179.469C116.503 182.447 121.774 188.112 126.755 184.879C127.356 184.491 127.875 183.986 128.284 183.394C128.693 182.801 128.982 182.133 129.136 181.427C129.29 180.722 129.306 179.992 129.182 179.28C129.058 178.568 128.797 177.888 128.414 177.279C128.031 176.669 127.534 176.142 126.95 175.727C126.366 175.313 125.708 175.019 125.012 174.863C124.316 174.707 123.597 174.691 122.895 174.817C122.194 174.942 121.523 175.207 120.922 175.595C119.075 176.654 117.041 177.335 114.935 177.6Z" fill="white"/>
<path d="M124.731 150.19C124.126 166.421 110.963 178.223 94.8164 178.223" stroke="#00303E" stroke-width="0.516624" stroke-linecap="round" stroke-linejoin="round"/>
<path fill-rule="evenodd" clip-rule="evenodd" d="M124.855 149.723C125.256 149.751 125.59 149.951 125.825 150.344C126.656 151.731 127.491 153.116 128.325 154.501C128.498 154.79 128.672 155.078 128.85 155.363C129.013 155.625 129.058 155.887 128.869 156.154C128.699 156.394 128.457 156.46 128.112 156.349C127.224 156.064 126.336 155.781 125.453 155.481C125.024 155.335 124.615 155.328 124.183 155.477C123.31 155.779 122.427 156.05 121.549 156.336C121.264 156.429 120.995 156.444 120.783 156.175C120.598 155.94 120.6 155.679 120.806 155.335C121.805 153.666 122.806 152 123.811 150.336C124.043 149.95 124.379 149.736 124.855 149.723Z" fill="#00B8B7"/>
<path d="M147.192 156.031C147.053 155.94 146.895 155.882 146.731 155.86C145.81 160.731 143.482 166.919 137.537 166.919C136.277 166.916 135.043 166.557 133.975 165.88C132.906 165.204 132.044 164.239 131.487 163.093C131.304 163.705 131.206 164.34 131.197 164.98C131.197 166.805 131.912 168.555 133.183 169.846C134.455 171.136 136.18 171.862 137.979 171.862C145.645 171.862 147.314 161.565 147.676 157.084C147.693 156.881 147.657 156.677 147.572 156.492C147.487 156.307 147.356 156.148 147.192 156.031Z" fill="#00CAF1"/>
<path d="M140.817 163.443C138.923 164.189 137.214 165.346 135.807 166.833C134.401 168.319 133.332 170.1 132.674 172.049C132.381 172.908 132.232 173.811 132.234 174.719V203.921" stroke="#00303E" stroke-width="0.516624" stroke-linecap="round" stroke-linejoin="round"/>
<path d="M95.3926 198.08C95.3926 198.08 99.998 198.08 99.998 203.921C99.998 203.921 99.998 198.08 104.604 198.08" stroke="#00303E" stroke-width="0.516624" stroke-linecap="round" stroke-linejoin="round"/>
<path d="M116.117 199.248C116.452 198.264 117.069 197.404 117.89 196.78C118.711 196.155 119.698 195.794 120.723 195.744" stroke="#00303E" stroke-width="0.516624" stroke-linecap="round" stroke-linejoin="round"/>
<path d="M114.964 188.652C115.612 189.309 115.977 190.2 115.977 191.13C115.977 192.059 115.613 192.95 114.966 193.608C114.318 194.265 113.439 194.635 112.523 194.635C111.607 194.635 110.728 194.266 110.08 193.609C108.896 191.707 108.009 189.63 107.451 187.453C107.387 187.249 107.379 187.031 107.429 186.823C107.479 186.615 107.584 186.425 107.734 186.274C107.883 186.122 108.07 186.015 108.276 185.965C108.481 185.914 108.696 185.921 108.897 185.986C111.042 186.553 113.089 187.453 114.964 188.652V188.652Z" stroke="#00303E" stroke-width="0.516624" stroke-linecap="round" stroke-linejoin="round"/>
<path d="M114.851 193.728C115.679 195.024 116.119 196.536 116.117 198.081V203.921" stroke="#00303E" stroke-width="0.516624" stroke-linecap="round" stroke-linejoin="round"/>
<path d="M128.416 177.289C128.038 176.69 127.549 176.172 126.977 175.761C127.005 176.709 126.791 177.648 126.355 178.487C125.918 179.326 125.275 180.035 124.487 180.546C120.84 182.903 117.04 180.506 114.355 177.883C114.213 178.001 114.101 178.154 114.031 178.327C113.956 178.516 113.932 178.722 113.961 178.924C113.99 179.127 114.07 179.317 114.194 179.478C116.497 182.457 121.768 188.122 126.749 184.889C127.963 184.105 128.821 182.864 129.133 181.439C129.446 180.014 129.188 178.521 128.416 177.289Z" fill="#00CAF1"/>
<path d="M146.05 155.918C146.233 155.833 146.436 155.797 146.637 155.816C146.838 155.835 147.031 155.907 147.196 156.026C147.361 156.144 147.493 156.304 147.577 156.491C147.662 156.677 147.696 156.882 147.678 157.086C147.316 161.567 145.647 171.865 137.981 171.865C136.204 171.831 134.511 171.092 133.265 169.805C132.02 168.518 131.322 166.787 131.322 164.984C131.322 163.18 132.02 161.449 133.265 160.162C134.511 158.875 136.204 158.136 137.981 158.103C140.788 157.93 143.532 157.187 146.05 155.918V155.918Z" stroke="#00303E" stroke-width="0.516624" stroke-linecap="round" stroke-linejoin="round"/>
<path d="M114.935 177.6C114.737 177.631 114.551 177.714 114.394 177.84C114.237 177.967 114.116 178.133 114.042 178.321C113.968 178.51 113.943 178.715 113.971 178.916C113.999 179.118 114.078 179.308 114.201 179.469C116.503 182.447 121.774 188.112 126.755 184.879C127.356 184.491 127.875 183.986 128.284 183.394C128.693 182.801 128.982 182.133 129.136 181.427C129.29 180.722 129.306 179.992 129.182 179.28C129.058 178.568 128.797 177.888 128.414 177.279C128.031 176.669 127.534 176.142 126.95 175.727C126.366 175.313 125.708 175.019 125.012 174.863C124.316 174.707 123.597 174.691 122.895 174.817C122.194 174.942 121.523 175.207 120.922 175.595C119.075 176.654 117.041 177.335 114.935 177.6V177.6Z" stroke="#00303E" stroke-width="0.516624" stroke-linecap="round" stroke-linejoin="round"/>
<path d="M121.667 180.2C123.261 179.878 124.904 179.913 126.483 180.302C128.063 180.692 129.539 181.426 130.809 182.454C131.37 182.906 131.852 183.45 132.237 184.064" stroke="#00303E" stroke-width="0.516624" stroke-linecap="round" stroke-linejoin="round"/>
<path d="M122.545 187.468C126.591 187.468 129.871 184.19 129.871 180.147C129.871 176.104 126.591 172.826 122.545 172.826C118.498 172.826 115.218 176.104 115.218 180.147C115.218 184.19 118.498 187.468 122.545 187.468Z" fill="#00CAF1"/>
<path d="M121.141 187.083C117.064 187.083 113.751 183.773 113.751 179.699C113.751 175.625 117.064 172.314 121.141 172.314C125.219 172.314 128.532 175.625 128.532 179.699C128.532 183.773 125.219 187.083 121.141 187.083Z" fill="white"/>
<path d="M119.174 176.863L122.864 176.863" stroke="white" stroke-width="1.03325" stroke-linecap="round" stroke-linejoin="round"/>
<path d="M119.174 178.706L122.864 178.706" stroke="white" stroke-width="1.03325" stroke-linecap="round" stroke-linejoin="round"/>
<path d="M120.404 176.863C120.893 176.863 121.363 177.057 121.709 177.403C122.055 177.749 122.249 178.219 122.249 178.708C122.249 179.197 122.055 179.667 121.709 180.013C121.363 180.359 120.893 180.553 120.404 180.553L119.174 180.553L122.249 183.628" stroke="white" stroke-width="1.03325" stroke-linecap="round" stroke-linejoin="round"/>
<path d="M121.143 172.345C125.188 172.345 128.469 175.623 128.469 179.666C128.469 183.708 125.188 186.987 121.143 186.987C117.097 186.987 113.816 183.708 113.816 179.666C113.816 175.623 117.097 172.345 121.143 172.345ZM121.143 172.25C117.033 172.25 113.688 175.592 113.688 179.698C113.688 183.804 117.033 187.146 121.143 187.146C125.252 187.146 128.597 183.804 128.597 179.698C128.597 175.592 125.252 172.25 121.143 172.25Z" fill="#282C3F"/>
</g>
<path d="M120 138.258C141.55 138.258 161.066 136.691 175.2 134.154C182.265 132.886 187.998 131.373 191.971 129.687C193.957 128.845 195.517 127.953 196.586 127.016C197.653 126.08 198.258 125.071 198.258 124C198.258 122.929 197.653 121.92 196.586 120.984C195.517 120.047 193.957 119.155 191.971 118.313C187.998 116.627 182.265 115.114 175.2 113.846C161.066 111.309 141.55 109.742 120 109.742C98.4504 109.742 78.9344 111.309 64.8 113.846C57.735 115.114 52.0017 116.627 48.0287 118.313C46.0433 119.155 44.4827 120.047 43.4143 120.984C42.3473 121.92 41.7417 122.929 41.7417 124C41.7417 125.071 42.3473 126.08 43.4143 127.016C44.4827 127.953 46.0433 128.845 48.0287 129.687C52.0017 131.373 57.735 132.886 64.8 134.154C78.9344 136.691 98.4504 138.258 120 138.258Z" fill="white" stroke="#282C3F" stroke-width="0.516624"/>
<path d="M96.1427 127.71H143.094C143.13 127.71 143.2 127.702 143.246 127.641C143.286 127.588 143.282 127.53 143.268 127.488V126.788C143.268 125.706 142.393 124.805 141.285 124.805H97.9271C96.8457 124.805 95.9442 125.68 95.9442 126.788V127.511C95.9442 127.555 95.9551 127.611 95.9992 127.655C96.0433 127.699 96.0991 127.71 96.1427 127.71Z" fill="white" stroke="#282C3F" stroke-width="0.252303"/>
<path d="M135.377 125.105H135.503V124.979V121.844C135.503 120.713 134.579 119.789 133.448 119.789H105.789C104.658 119.789 103.733 120.713 103.733 121.844V124.979V125.105H103.859H135.377Z" fill="white" stroke="#282C3F" stroke-width="0.252303"/>
<path d="M130.531 120.186H130.657V120.06V117.889C130.657 117.074 129.999 116.412 129.178 116.437H110.033C109.242 116.437 108.581 117.071 108.581 117.889V120.06V120.186H108.707H130.531Z" fill="white" stroke="#282C3F" stroke-width="0.252303"/>
<path d="M135.377 123.773H103.859V124.979H135.377V123.773Z" fill="#00CAF1"/>
<path d="M120.451 43.3752H118.763V99.7793H120.451V43.3752Z" fill="#212523"/>
<path d="M121.759 77.6663V77.5401H121.633H117.605H117.479V77.6663V116.539V116.665H117.605H121.633H121.759V116.539V77.6663Z" fill="white" stroke="#282C3F" stroke-width="0.252303"/>
<path d="M121.633 92.5452H117.605V93.0757H121.633V92.5452Z" fill="#5E5949"/>
<path d="M121.633 89.3137H117.605V89.8442H121.633V89.3137Z" fill="#5E5949"/>
<path d="M121.633 86.082H117.605V86.6126H121.633V86.082Z" fill="#5E5949"/>
<path d="M119.631 79.0895C121.162 79.0895 122.404 77.8479 122.404 76.3163C122.404 74.7847 121.162 73.5431 119.631 73.5431C118.099 73.5431 116.857 74.7847 116.857 76.3163C116.857 77.8479 118.099 79.0895 119.631 79.0895Z" fill="#B86E26"/>
<path d="M108.741 43.6987L108.741 43.6987C103.087 44.5373 93.9047 43.9868 86.5742 43.167L86.3349 43.1402L86.2915 43.3771L86.0262 44.824L85.9794 45.0792L86.2349 45.1248L118.91 50.9606L119.164 51.0059L119.21 50.7522L120.512 43.5419L120.552 43.3181L120.335 43.2497L120.258 43.496C120.335 43.2497 120.335 43.2496 120.335 43.2495L120.335 43.2494L120.334 43.2491L120.331 43.2482L120.322 43.2457C120.315 43.2436 120.305 43.2408 120.293 43.2374C120.268 43.2307 120.231 43.2214 120.183 43.2104C120.086 43.1884 119.941 43.1594 119.741 43.1291C119.341 43.0685 118.72 43.0029 117.826 42.9786C116.039 42.9298 113.154 43.0459 108.741 43.6987Z" fill="white" stroke="#282C3F" stroke-width="0.516624"/>
<path d="M152.415 55.2388L152.46 54.9992L152.223 54.9407C145.013 53.1563 136.096 50.4619 131.016 47.6822L131.016 47.6821C127.099 45.5426 124.433 44.4327 122.74 43.8572C121.893 43.5693 121.289 43.4149 120.893 43.3323C120.695 43.291 120.549 43.2676 120.451 43.2544C120.402 43.2478 120.365 43.2438 120.339 43.2413C120.326 43.2401 120.316 43.2393 120.308 43.2388L120.3 43.2382L120.297 43.238L120.296 43.2379L120.295 43.2379C120.295 43.2379 120.295 43.2379 120.281 43.4958L120.295 43.2379L120.068 43.2262L120.027 43.4491L118.701 50.6594L118.654 50.9146L118.909 50.9604L151.85 56.8685L152.103 56.9137L152.15 56.6615L152.415 55.2388Z" fill="white" stroke="#282C3F" stroke-width="0.516624"/>
<path d="M116.978 43.8095C116.978 43.8095 116.929 40.4817 119.606 35.9723V55.1675C119.606 55.1675 118.232 54.9505 117.412 50.7787L116.978 43.8095Z" fill="#212523"/>
<path d="M122.235 43.8095C122.235 43.8095 122.283 40.4817 119.606 35.9723V55.1675C119.606 55.1675 120.981 54.9505 121.801 50.7787L122.235 43.8095Z" fill="#212523"/>
<path d="M117.388 50.7059C117.34 50.7059 117.316 50.6818 117.292 50.6335C116.472 47.3057 116.906 43.8573 116.906 43.8091C116.906 43.7609 116.954 43.7126 117.002 43.7368C117.051 43.7368 117.099 43.785 117.075 43.8332C117.075 43.8573 116.665 47.3057 117.46 50.5853C117.485 50.6335 117.46 50.6818 117.388 50.7059Z" fill="#5E5949"/>
<path d="M121.873 50.7069C121.873 50.7069 121.849 50.7069 121.873 50.7069C121.8 50.6828 121.776 50.6346 121.776 50.5863C122.572 47.3068 122.162 43.8584 122.162 43.8343C122.162 43.786 122.186 43.7378 122.235 43.7378C122.283 43.7378 122.331 43.7619 122.331 43.8101C122.331 43.8343 122.741 47.3068 121.945 50.6346C121.945 50.6587 121.921 50.7069 121.873 50.7069Z" fill="#5E5949"/>
<path d="M122.404 36.5994C122.404 38.1427 121.15 39.3725 119.631 39.3725C118.087 39.3725 116.857 38.1186 116.857 36.5994C116.857 35.056 118.111 33.8262 119.631 33.8262C121.174 33.8262 122.404 35.0801 122.404 36.5994Z" fill="#B86E26"/>
<path d="M119.63 44.6641C118.738 44.6641 118.015 43.9407 118.015 43.0484C118.015 42.1562 118.738 41.4327 119.63 41.4327C120.523 41.4327 121.246 42.1562 121.246 43.0484C121.246 43.9165 120.523 44.6641 119.63 44.6641Z" fill="#7E3F20"/>
<path d="M126.767 67.9643C126.734 66.5804 125.922 64.9457 124.697 63.6714C123.471 62.3959 121.809 61.4588 120.056 61.5037C118.303 61.5486 116.689 62.5566 115.527 63.887C114.366 65.2163 113.635 66.8899 113.671 68.2968C113.68 68.6584 113.798 69.1339 113.988 69.6814C114.18 70.2314 114.449 70.8639 114.768 71.5431C115.407 72.9017 116.251 74.4543 117.092 75.9195C117.934 77.385 118.773 78.7648 119.401 79.7781C119.715 80.2848 119.977 80.7 120.16 80.9885C120.252 81.1328 120.324 81.2454 120.373 81.322L120.429 81.4093L120.443 81.4317L120.447 81.4373L120.448 81.4388L120.448 81.4391C120.448 81.4392 120.448 81.4393 120.554 81.3708L120.448 81.4393L120.581 81.6445L120.671 81.4175C121.425 79.527 122.559 77.4372 123.648 75.4316C123.918 74.9343 124.185 74.4422 124.443 73.9596C125.09 72.7476 125.679 71.5955 126.102 70.5769C126.522 69.5622 126.786 68.6639 126.767 67.9643ZM126.767 67.9643C126.767 67.9643 126.767 67.9644 126.767 67.9644L126.641 67.9674L126.767 67.9641C126.767 67.9642 126.767 67.9642 126.767 67.9643Z" fill="white" stroke="#282C3F" stroke-width="0.252303"/>
<path d="M120.366 78.0316L120.499 78.2368L125.447 67.0121L125.573 67.0091C125.573 67.009 125.573 67.009 125.573 67.0089C125.546 65.8669 124.878 64.5248 123.873 63.4806C122.868 62.4351 121.503 61.6656 120.061 61.7017C118.62 61.7378 117.296 62.5653 116.344 63.6555C115.393 64.7445 114.794 66.1182 114.824 67.2775C114.832 67.5772 114.929 67.9689 115.085 68.4172C115.242 68.8681 115.462 69.3861 115.724 69.9417C116.246 71.0531 116.936 72.3227 117.624 73.5203C118.311 74.7182 118.997 75.8459 119.511 76.674C119.767 77.0881 119.981 77.4274 120.131 77.6632C120.206 77.7811 120.265 77.8732 120.305 77.9357L120.351 78.0071L120.362 78.0254L120.365 78.03L120.366 78.0312L120.366 78.0315C120.366 78.0316 120.366 78.0316 120.472 77.9631L120.366 78.0316Z" fill="white" stroke="#282C3F" stroke-width="0.252303"/>
<path d="M120.065 61.8044C117.916 61.8569 116.081 64.2801 116.122 65.9985C116.163 67.7168 120.38 74.235 120.38 74.235C121.568 71.2526 124.259 67.4897 124.213 65.7946C124.172 64.1053 122.215 61.752 120.065 61.8044Z" fill="white"/>
<path d="M114.803 75.9799C114.803 75.98 114.803 75.98 114.921 75.9364L114.803 75.98L114.888 76.209L115.025 76.0077C115.787 74.8972 116.821 73.713 117.817 72.5733C118.068 72.2861 118.316 72.0017 118.557 71.7221C119.154 71.0296 119.704 70.3661 120.128 69.7647C120.549 69.1667 120.854 68.6158 120.946 68.1497C121.129 67.2326 120.834 66.0412 120.221 65.0292C119.607 64.0158 118.656 63.1553 117.497 62.9277C116.339 62.6973 115.134 63.1229 114.181 63.822C113.228 64.5202 112.502 65.509 112.316 66.4402C112.268 66.6829 112.275 67.0139 112.319 67.398C112.363 67.7848 112.446 68.2361 112.555 68.7242C112.772 69.7005 113.094 70.8325 113.427 71.9064C113.76 72.9807 114.104 73.999 114.365 74.7486C114.495 75.1234 114.605 75.4311 114.682 75.6452C114.72 75.7523 114.75 75.8359 114.771 75.8928L114.795 75.9577L114.801 75.9744L114.803 75.9786L114.803 75.9797L114.803 75.9799Z" fill="white" stroke="#282C3F" stroke-width="0.252303"/>
<path d="M115.364 73.7113L115.246 73.7548L115.245 73.7546L115.245 73.7537L115.244 73.7503L115.239 73.7366L115.219 73.6835C115.202 73.637 115.178 73.5686 115.146 73.481C115.083 73.306 114.994 73.0544 114.887 72.7479C114.674 72.135 114.393 71.3024 114.121 70.424C113.849 69.5459 113.585 68.62 113.408 67.8211C113.319 67.4218 113.251 67.0521 113.215 66.7349C113.179 66.4204 113.173 66.147 113.213 65.9451L115.364 73.7113ZM115.364 73.7113L115.246 73.7549L115.33 73.9841L115.468 73.7825C116.091 72.8718 116.938 71.9018 117.754 70.9681C117.956 70.7362 118.157 70.5064 118.352 70.2804C118.839 69.7146 119.29 69.1721 119.636 68.6799C119.981 68.191 120.234 67.7376 120.311 67.3517C120.462 66.5947 120.218 65.6159 119.715 64.786C119.21 63.9547 118.429 63.2456 117.474 63.0559C116.52 62.8663 115.529 63.2161 114.746 63.7892C113.965 64.3615 113.367 65.1741 113.213 65.9451L115.364 73.7113Z" fill="white" stroke="#282C3F" stroke-width="0.252303"/>
<path d="M117.45 63.1622C116.046 62.8826 114.502 64.1874 114.281 65.3116C114.059 66.4359 115.842 71.2765 115.842 71.2765C117.048 69.5173 119.343 67.4611 119.558 66.3602C119.78 65.2534 118.853 63.4418 117.45 63.1622Z" fill="white"/>
<path d="M118.442 62.3937L118.441 62.3939C117.738 62.7007 117.254 63.3702 117.005 64.0868C116.757 64.8019 116.732 65.592 116.978 66.1597C117.044 66.3106 117.171 66.4852 117.334 66.6709C117.498 66.8586 117.706 67.0656 117.939 67.2818C118.407 67.7144 118.985 68.1898 119.548 68.6305C120.11 69.0714 120.658 69.479 121.065 69.7762C121.269 69.9249 121.437 70.046 121.555 70.13C121.614 70.172 121.66 70.2047 121.691 70.227L121.727 70.2523L121.736 70.2588L121.739 70.2605L121.739 70.2609L121.74 70.261L121.812 70.1578L121.74 70.2611L121.94 70.4014L121.938 70.1571C121.934 69.2993 122.046 68.3039 122.155 67.3441C122.182 67.1085 122.208 66.8751 122.232 66.6463C122.294 66.0688 122.342 65.5214 122.347 65.0517C122.351 64.586 122.313 64.1791 122.19 63.8927L122.19 63.8924C121.949 63.3359 121.355 62.8161 120.662 62.5079C119.968 62.199 119.146 62.0898 118.442 62.3937Z" fill="white" stroke="#282C3F" stroke-width="0.252303"/>
<path d="M118.476 62.4695L118.476 62.4696C117.892 62.724 117.494 63.2786 117.29 63.8685C117.087 64.4569 117.066 65.1085 117.269 65.577L117.269 65.5773C117.324 65.7042 117.431 65.8491 117.564 66.0014C117.699 66.1557 117.87 66.3255 118.061 66.5026C118.444 66.8569 118.917 67.2457 119.377 67.6059C119.837 67.9664 120.284 68.2995 120.617 68.5425C120.783 68.6639 120.921 68.7629 121.017 68.8316C121.065 68.8659 121.103 68.8927 121.129 68.9108L121.158 68.9316L121.166 68.9369L121.168 68.9383L121.168 68.9386L121.168 68.9387L121.241 68.8355L121.168 68.9387L121.368 69.0787L121.367 68.8351C121.365 68.1403 121.456 67.3337 121.544 66.5532C121.567 66.3558 121.589 66.1602 121.609 65.9684C121.66 65.4961 121.699 65.0475 121.703 64.6623C121.706 64.2812 121.675 63.9446 121.572 63.7061L121.572 63.7061L121.572 63.7051C121.369 63.2453 120.876 62.8175 120.307 62.5639C119.736 62.3097 119.058 62.2179 118.476 62.4695Z" fill="white" stroke="#282C3F" stroke-width="0.252303"/>
<path d="M118.521 62.5795C117.688 62.9407 117.35 64.1814 117.641 64.8455C117.932 65.5095 120.612 67.3968 120.612 67.3968C120.606 66.0396 121.06 64.1406 120.775 63.4824C120.495 62.83 119.353 62.2184 118.521 62.5795Z" fill="white"/>
<path d="M111.508 45.6639C111.508 45.6639 107.302 48.0697 105.228 52.3278C102.59 57.7334 101.896 66.0107 102.922 66.535C103.947 67.0592 105.188 63.0807 107.255 60.7449C110.675 56.8829 113.628 57.1159 113.628 57.1159L111.508 45.6639Z" fill="#00CAF1"/>
<path d="M127.393 45.6639C127.393 45.6639 131.598 48.0697 133.672 52.3278C136.311 57.7334 137.004 66.0107 135.979 66.535C134.954 67.0592 133.713 63.0807 131.645 60.7449C128.226 56.8829 125.272 57.1159 125.272 57.1159L127.393 45.6639Z" fill="#00CAF1"/>
<path d="M125.616 63.8323C126.088 62.3703 129.251 52.0833 129.251 39.309C129.251 28.7424 123.146 22.7485 119.453 19.7836C115.76 22.7485 109.655 28.7424 109.655 39.309C109.655 52.0891 112.818 62.3761 113.29 63.8323H125.616Z" fill="#2B2B38"/>
<path d="M111.533 61.1797L111.562 61.2672H111.654H127.253H127.345L127.373 61.1797C127.429 61.0066 127.514 60.7651 127.624 60.456C128.684 57.4713 131.981 48.1913 131.981 33.5072C131.981 26.3522 129.777 19.616 127.015 14.3195L126.98 14.2517H126.903H112.003H111.927L111.891 14.3194C109.123 19.6218 106.926 26.3523 106.926 33.5072C106.926 48.1877 110.223 57.4724 111.283 60.4569C111.392 60.7655 111.478 61.0068 111.533 61.1797Z" fill="white" stroke="#282C3F" stroke-width="0.252303"/>
<path d="M119.453 4.46362C117.269 6.21695 114.42 9.74691 112.003 14.3778H126.903C124.486 9.74691 121.638 6.21695 119.453 4.46362Z" fill="#00357C"/>
<path d="M119.453 21.3851C116.5 21.3851 114.111 23.7792 114.111 26.7267C114.111 29.68 116.505 32.0682 119.453 32.0682C122.406 32.0682 124.794 29.6741 124.794 26.7267C124.794 23.7734 122.406 21.3851 119.453 21.3851Z" fill="#A5DCF0"/>
<path d="M124.964 29.8782C126.688 26.8317 125.622 22.9697 122.576 21.2397C119.529 19.5155 115.661 20.5814 113.937 23.6279C112.213 26.6744 113.279 30.5364 116.325 32.2664C119.372 33.9965 123.24 32.9247 124.964 29.8782ZM123.746 29.1908C122.401 31.5616 119.389 32.3946 117.018 31.049C114.648 29.7034 113.815 26.6919 115.16 24.3211C116.506 21.9503 119.517 21.1174 121.888 22.4629C124.259 23.8085 125.092 26.82 123.746 29.1908Z" fill="#2B2B38"/>
<path opacity="0.3" d="M124.149 29.4181C125.616 26.8259 124.708 23.5348 122.116 22.0669C119.523 20.599 116.232 21.5077 114.764 24.0998C113.297 26.692 114.205 29.9831 116.797 31.451C119.384 32.9189 122.681 32.0102 124.149 29.4181Z" fill="#E6E6E7"/>
<path opacity="0.5" d="M115.295 28.2531C114.706 26.4823 115.295 24.461 116.891 23.3077C118.481 22.1543 120.59 22.2242 122.087 23.3426C122.087 23.3426 119.535 24.3736 118.195 25.3464C116.815 26.3367 115.295 28.2531 115.295 28.2531Z" fill="white"/>
<path d="M119.488 47.5747H119.482C118.428 47.5747 117.729 49.2057 117.729 51.3901C117.729 53.5803 117.962 66.5817 119.482 66.5817C119.482 66.5817 119.482 66.5817 119.488 66.5817C119.488 66.5817 119.488 66.5817 119.493 66.5817C121.014 66.5817 121.247 53.5745 121.247 51.3901C121.241 49.2057 120.542 47.5747 119.488 47.5747Z" fill="#00CAF1"/>
<path d="M119.453 14.3778H126.903C124.486 9.74691 121.638 6.21695 119.453 4.46362V14.3778Z" fill="#00357C"/>
<path d="M119.488 47.5747L119.482 66.5876C119.482 66.5876 119.482 66.5876 119.488 66.5876C121.009 66.5876 121.242 53.5803 121.242 51.3959C121.242 49.2057 120.543 47.5747 119.488 47.5747Z" fill="#00CAF1"/>
<path d="M76.3984 63.2889C76.3984 63.2889 80.9051 61.8242 88.0173 61.8242C95.1294 61.8242 99.0305 63.2889 99.0305 63.2889C99.0305 63.2889 94.0168 65.0916 88.0173 65.0916C82.0177 65.0916 76.3984 63.2889 76.3984 63.2889Z" fill="#1F1B38"/>
<path d="M89.1617 53.999C89.1617 53.999 89.1254 54.0535 89.0254 54.1262C88.7255 54.3807 87.8804 54.9259 86.1537 54.9259C84.7178 54.9259 83.8635 54.6897 83.4455 54.5352C83.2456 54.4625 83.1456 54.3989 83.1456 54.3989C83.1456 54.3989 82.7185 53.2992 84.3634 53.4537C86.0083 53.6082 86.9261 54.1989 87.6077 53.9172C88.2802 53.6355 89.3798 53.5537 89.1617 53.999Z" fill="#6B4B2D"/>
<path d="M89.0251 54.1262C88.7252 54.3806 87.8801 54.9259 86.1534 54.9259C84.7175 54.9259 83.8633 54.6896 83.4452 54.5351C83.4452 54.5351 82.7182 53.5082 84.3631 53.6627C86.008 53.8172 86.8895 54.2716 87.5983 54.0716C88.2436 53.899 89.0887 53.7536 89.0251 54.1262Z" fill="#3D2B1F"/>
<path d="M88.2982 56.3255C88.0164 56.1619 87.7347 56.1619 87.5166 56.2073V56.6345C87.6438 56.6617 87.8347 56.7254 88.0346 56.8708C88.0437 56.8798 88.0528 56.8798 88.0619 56.8889C88.1346 56.8162 88.1891 56.7344 88.2254 56.6527C88.1437 56.5799 88.0619 56.5345 87.9801 56.4891C88.0619 56.5072 88.1527 56.5436 88.2527 56.589C88.28 56.4891 88.2982 56.3982 88.2982 56.3255Z" fill="#7E3F20"/>
<path d="M89.1616 53.9987L89.2576 54.0149L89.2862 53.8462L89.1266 53.9078C87.7401 54.4429 86.6998 54.1755 85.8094 53.9466C85.648 53.9051 85.4914 53.8649 85.3386 53.8309L85.3386 53.8309L85.3379 53.8308C85.0812 53.7758 84.8356 53.7374 84.5962 53.7469C83.9608 53.7655 83.579 53.9073 83.3529 54.0532C83.2399 54.126 83.167 54.1991 83.1214 54.2564C83.0987 54.285 83.0829 54.3095 83.0724 54.3278C83.0672 54.337 83.0633 54.3446 83.0605 54.3504L83.0571 54.3577L83.056 54.3603L83.0556 54.3613L83.0554 54.3617L83.0553 54.3619C83.0553 54.362 83.0552 54.3621 83.1455 54.3985L83.0552 54.3621L83.039 54.4022L83.058 54.4411C83.1467 54.6235 83.3209 54.8375 83.5239 55.0517C83.7286 55.2677 83.9697 55.4908 84.1992 55.6918C84.4289 55.8929 84.6482 56.0728 84.8099 56.2023C84.8908 56.2671 84.9575 56.3194 85.0039 56.3555L85.0577 56.3971L85.0716 56.4078C85.2197 56.5542 85.3962 56.6512 85.5894 56.7092L85.6174 56.6159L85.5893 56.7092C85.9879 56.8292 86.4419 56.7969 86.7889 56.7381C86.9638 56.7084 87.1145 56.6716 87.2215 56.6421C87.2751 56.6273 87.3179 56.6144 87.3475 56.605C87.3623 56.6004 87.3738 56.5966 87.3817 56.594L87.3908 56.5909L87.3933 56.5901L87.394 56.5898L87.3942 56.5898L87.3942 56.5897L87.3622 56.4978L87.3943 56.5897L87.4032 56.5866L87.4113 56.5819C88.1951 56.1246 88.6564 55.4834 88.9214 54.9581C89.0539 54.6954 89.1377 54.461 89.1884 54.2919C89.2138 54.2073 89.231 54.1388 89.2418 54.0912C89.2473 54.0673 89.2512 54.0487 89.2537 54.0358L89.2566 54.0208L89.2573 54.0167L89.2575 54.0155L89.2576 54.0152L89.2576 54.015L89.1616 53.9987Z" fill="white" stroke="#282C3F" stroke-width="0.194694"/>
<path d="M88.9616 54.1807C88.9616 54.1807 88.598 55.4439 87.8801 55.8619C87.8801 55.8619 87.6984 55.8437 87.5166 55.7529C87.5166 55.7438 88.2982 55.4348 88.9616 54.1807Z" fill="#946C49"/>
<path d="M91.8033 64.2074C91.7385 63.1338 91.3318 62.0361 90.7241 61.1153L90.7239 61.1151C89.7887 59.7077 89.0169 58.4728 88.4718 57.5917C88.1995 57.1513 87.9861 56.7995 87.8409 56.5578C87.7683 56.437 87.7127 56.3438 87.6753 56.2807L87.633 56.2092L87.6223 56.1911L87.6197 56.1865L87.619 56.1854L87.6188 56.1851L87.6188 56.185L87.6188 56.185L87.5348 56.2343L87.6188 56.185L87.5845 56.1265L87.5177 56.1384C87.0155 56.2281 86.5141 56.2638 86.0041 56.237L86.0029 56.2369C85.781 56.2281 85.5581 56.2014 85.3335 56.1655L85.1798 56.1384L85.1087 56.1258L85.076 56.1903L85.1629 56.2343L85.076 56.1903L85.076 56.1903L85.0759 56.1906L85.0753 56.1917L85.073 56.1962L85.0638 56.2143L85.0268 56.2858C84.994 56.3489 84.945 56.4423 84.8803 56.5632C84.7508 56.805 84.5587 57.157 84.3081 57.597C83.8069 58.4769 83.072 59.7086 82.1374 61.1151L82.1372 61.1152C81.1951 62.5399 80.7385 64.4104 81.2908 65.9346C81.8479 67.4718 83.4154 68.6183 86.4352 68.6183C88.4819 68.6183 89.8617 68.0917 90.7128 67.2687C91.5648 66.4448 91.8727 65.3375 91.8033 64.2074ZM91.8033 64.2074C91.8033 64.2074 91.8033 64.2075 91.8033 64.2075L91.7061 64.2133M91.8033 64.2074C91.8033 64.2074 91.8033 64.2074 91.8033 64.2074L91.7061 64.2133M91.7061 64.2133C91.6425 63.1592 91.2426 62.0777 90.6428 61.1689L91.7061 64.2133Z" fill="white" stroke="#282C3F" stroke-width="0.194694"/>
<path d="M86.0176 56.3497H86.1088L86.1147 56.2586C86.1365 55.9199 85.8912 55.7017 85.6408 55.5025C85.6087 55.4769 85.5761 55.4514 85.5433 55.4258C85.3084 55.2418 85.0619 55.0489 84.8924 54.7665C84.7945 54.6019 84.782 54.4822 84.8017 54.3961C84.8216 54.3089 84.879 54.2379 84.9568 54.18C85.0348 54.1219 85.1269 54.0818 85.202 54.0562C85.2391 54.0435 85.271 54.0347 85.2933 54.0291C85.3044 54.0263 85.3132 54.0243 85.3189 54.0231L85.3252 54.0218L85.3265 54.0215L85.3265 54.0215L85.3266 54.0215L85.3265 54.0212L85.3298 53.8308C85.0812 53.7756 84.8268 53.7373 84.5877 53.7467C84.1699 53.7561 83.8683 53.8213 83.6387 53.9074C83.4081 53.9939 83.2621 54.1013 83.1724 54.191C83.1277 54.2357 83.0974 54.2756 83.0777 54.3056C83.0679 54.3206 83.0608 54.3331 83.0558 54.3424C83.0533 54.3471 83.0514 54.351 83.05 54.354L83.0482 54.3579L83.0475 54.3594L83.0473 54.36L83.0472 54.3602L83.0471 54.3604C83.0471 54.3604 83.0471 54.3605 83.1367 54.3984L83.0471 54.3605L83.03 54.4008L83.0488 54.4403C83.1233 54.5966 83.2606 54.7749 83.4238 54.9553C83.5883 55.1372 83.7845 55.327 83.9824 55.5065C84.3781 55.8656 84.7847 56.1877 84.9673 56.3293L84.9937 56.3497H85.027H86.0176Z" fill="white" stroke="#282C3F" stroke-width="0.194694"/>
<path d="M87.8615 56.407C87.8615 56.4706 87.8434 56.5433 87.7707 56.6069C87.7707 56.6069 86.353 56.1707 84.9262 56.6887C84.9262 56.6887 84.8353 56.5797 84.8444 56.4161C84.8444 56.3525 84.8717 56.2798 84.9171 56.198C84.9171 56.198 86.2984 55.8072 87.7888 56.2071C87.7888 56.2071 87.8525 56.298 87.8615 56.407Z" fill="#B86E26"/>
<path d="M87.9618 56.189C87.9346 56.2253 87.88 56.2526 87.7892 56.2526C87.7892 56.2526 86.4896 55.7528 84.9174 56.2435C84.9174 56.2435 84.8174 56.2344 84.7629 56.1617C84.7447 56.1344 84.7266 56.0981 84.7266 56.0527C84.7266 56.0527 86.4351 55.4529 87.9982 56.0708C87.9982 56.0799 87.9982 56.1435 87.9618 56.189Z" fill="#B86E26"/>
<path d="M87.9616 56.189C87.9343 56.2253 87.8798 56.2526 87.7889 56.2526C87.7889 56.2526 86.4894 55.7528 84.9172 56.2435C84.9172 56.2435 84.8172 56.2344 84.7627 56.1617C85.0081 56.089 86.5348 55.6437 87.9616 56.189Z" fill="#7E3F20"/>
<path d="M76.5135 63.083C76.4712 63.083 76.4431 63.0689 76.4008 63.0548C76.2741 62.9985 76.2318 62.8436 76.2882 62.7309L85.4987 44.5211C85.555 44.3943 85.71 44.3521 85.8226 44.4084C85.9494 44.4647 85.9916 44.6196 85.9353 44.7323L76.7247 62.9422C76.6825 63.0267 76.598 63.083 76.5135 63.083Z" fill="#212523"/>
<path d="M97.017 63.7675C96.9325 63.7675 96.848 63.7253 96.8058 63.6408L87.4262 45.3887C87.3699 45.2619 87.4121 45.1211 87.5248 45.0648C87.6515 45.0084 87.7924 45.0507 87.8487 45.1774L97.2142 63.4295C97.2705 63.5563 97.2283 63.6971 97.1156 63.7535C97.0874 63.7535 97.0593 63.7675 97.017 63.7675Z" fill="#212523"/>
<path d="M76.4282 63.141L76.2056 63.0963L76.2506 63.3188L76.3984 63.2889C76.2506 63.3188 76.2506 63.319 76.2506 63.3191L76.2507 63.3195L76.251 63.321L76.252 63.3259L76.256 63.3441C76.2595 63.3598 76.2647 63.3827 76.272 63.4123C76.2864 63.4715 76.3087 63.5574 76.3404 63.6664C76.4038 63.8842 76.5052 64.1941 76.6574 64.5653C76.9617 65.3074 77.4701 66.2966 78.2872 67.2861C79.9254 69.2698 82.7946 71.242 87.7074 71.242C92.6272 71.242 95.4999 69.2698 97.1399 67.2862C97.9579 66.2967 98.4668 65.3075 98.7713 64.5653C98.9236 64.1941 99.025 63.8842 99.0885 63.6664C99.1202 63.5575 99.1425 63.4715 99.157 63.4123C99.1642 63.3827 99.1694 63.3598 99.1729 63.3441L99.1769 63.3259L99.1779 63.321L99.1782 63.3195L99.1783 63.3191C99.1783 63.319 99.1783 63.3188 99.0305 63.2889L99.1783 63.3188L99.2262 63.0822L98.9925 63.1429C91.9795 64.9663 84.3988 64.7436 76.4282 63.141Z" fill="#00CAF1" stroke="#282C3F" stroke-width="0.301718"/>
<path d="M90.2105 43.8813C90.2105 45.1835 89.1494 46.2204 87.8713 46.2204C86.5692 46.2204 85.5322 45.1593 85.5322 43.8813C85.5322 42.5791 86.5933 41.5422 87.8713 41.5422C89.1735 41.518 90.2105 42.5791 90.2105 43.8813Z" fill="#212523"/>
<path d="M87.8718 45.4005C87.0277 45.4005 86.3525 44.7253 86.3525 43.8813C86.3525 43.0373 87.0277 42.3621 87.8718 42.3621C88.7158 42.3621 89.391 43.0373 89.391 43.8813C89.391 44.7253 88.7158 45.4005 87.8718 45.4005Z" fill="#5E5949"/>
<path d="M137.479 77.6066C137.479 77.6066 143.159 75.7609 152.121 75.7609C161.084 75.7609 166 77.6066 166 77.6066C166 77.6066 159.682 79.8783 152.121 79.8783C144.561 79.8783 137.479 77.6066 137.479 77.6066Z" fill="#1F1B38"/>
<path d="M151.269 82.5831L151.319 82.6109L151.37 82.5831C155.308 80.4374 156.873 77.6817 157.449 75.4543C157.736 74.3424 157.777 73.3646 157.745 72.6638C157.729 72.3133 157.695 72.0317 157.666 71.837C157.651 71.7396 157.637 71.6639 157.626 71.6121C157.621 71.5862 157.617 71.5663 157.614 71.5527L157.612 71.5437V71.451L157.508 71.4491C155.407 71.4101 153.885 70.3996 152.886 69.3936C152.386 68.8906 152.017 68.3899 151.774 68.0151C151.653 67.8277 151.563 67.672 151.503 67.5636C151.473 67.5094 151.451 67.467 151.437 67.4383C151.429 67.424 151.424 67.4131 151.42 67.4059L151.417 67.3979L151.416 67.3961L151.415 67.3957L151.415 67.3957L151.415 67.3956L151.32 67.1933L151.224 67.3956L151.224 67.3957L151.224 67.3957L151.223 67.3961L151.222 67.3979L151.219 67.4059C151.215 67.4131 151.21 67.424 151.202 67.4383C151.188 67.467 151.166 67.5094 151.136 67.5636C151.076 67.672 150.986 67.8277 150.865 68.0151C150.622 68.3899 150.253 68.8906 149.753 69.3936C148.754 70.3996 147.232 71.4101 145.131 71.4491L145.05 71.4506L145.03 71.53L145.133 71.5553C145.03 71.53 145.03 71.53 145.03 71.5302L145.03 71.5305L145.03 71.5317L145.029 71.5358L145.025 71.5513C145.022 71.5647 145.018 71.5844 145.013 71.6101C145.003 71.6615 144.989 71.7367 144.974 71.8337C144.944 72.0275 144.91 72.3083 144.894 72.6582C144.863 73.3578 144.903 74.3349 145.191 75.4469C145.766 77.6743 147.331 80.4324 151.269 82.5831ZM157.61 71.5339C157.609 71.5336 157.61 71.5339 157.61 71.5345L157.61 71.5339Z" fill="white" stroke="#282C3F" stroke-width="0.212384"/>
<path d="M151.266 81.7592L151.319 81.7896L151.372 81.7594C152.909 80.8813 154.149 79.8317 155.052 78.649C155.843 77.6367 156.395 76.5237 156.716 75.3404L156.716 75.3401C157.077 73.9961 157.047 72.8621 156.977 72.2277L156.967 72.1427L156.882 72.1338C155.203 71.9581 153.659 71.1969 152.366 69.904C151.964 69.5023 151.641 69.1005 151.396 68.7575L151.309 68.6365L151.223 68.7575C150.978 69.1005 150.655 69.5023 150.253 69.904L150.253 69.9043C148.97 71.1967 147.416 71.958 145.737 72.1338L145.651 72.1428L145.642 72.2293C145.582 72.8615 145.542 73.9954 145.903 75.3401L145.903 75.3402C146.224 76.5344 146.786 77.6374 147.567 78.649L147.568 78.6493C148.49 79.8317 149.74 80.8812 151.266 81.7592Z" fill="white" stroke="#282C3F" stroke-width="0.212384"/>
<path d="M146.512 72.834C146.512 72.9431 146.423 73.0323 146.314 73.0323C146.204 73.0323 146.115 72.9431 146.115 72.834C146.115 72.725 146.204 72.6357 146.314 72.6357C146.423 72.6357 146.512 72.725 146.512 72.834Z" fill="#7E3F20"/>
<path d="M156.365 73.0323C156.475 73.0323 156.564 72.9435 156.564 72.834C156.564 72.7245 156.475 72.6357 156.365 72.6357C156.256 72.6357 156.167 72.7245 156.167 72.834C156.167 72.9435 156.256 73.0323 156.365 73.0323Z" fill="#7E3F20"/>
<path d="M151.518 69.8205C151.518 69.9295 151.428 70.0187 151.319 70.0187C151.21 70.0187 151.121 69.9295 151.121 69.8205C151.121 69.7114 151.21 69.6222 151.319 69.6222C151.428 69.6222 151.518 69.7114 151.518 69.8205Z" fill="#7E3F20"/>
<path d="M151.518 81.1317C151.518 81.2408 151.428 81.33 151.319 81.33C151.21 81.33 151.121 81.2408 151.121 81.1317C151.121 81.0227 151.21 80.9335 151.319 80.9335C151.428 80.9335 151.518 81.0227 151.518 81.1317Z" fill="#7E3F20"/>
<path d="M140.053 78.1565C140 78.1565 139.964 78.1387 139.911 78.121C139.751 78.05 139.698 77.8548 139.769 77.7128L151.376 54.7651C151.447 54.6054 151.642 54.5521 151.784 54.6231C151.944 54.6941 151.997 54.8894 151.926 55.0313L140.319 77.979C140.284 78.0855 140.16 78.1565 140.053 78.1565Z" fill="#212523"/>
<path d="M163.462 78.2093C163.355 78.2093 163.249 78.156 163.196 78.0496L151.394 55.0487C151.323 54.8889 151.376 54.7115 151.518 54.6405C151.678 54.5695 151.855 54.6227 151.926 54.7825L163.728 77.7833C163.799 77.9431 163.746 78.1206 163.604 78.1915C163.568 78.1915 163.515 78.2093 163.462 78.2093Z" fill="#212523"/>
<path d="M137.517 77.4197L137.236 77.3633L137.293 77.6438L137.479 77.6061C137.293 77.6438 137.293 77.6439 137.293 77.6441L137.293 77.6446L137.294 77.6464L137.295 77.6526L137.3 77.6755C137.304 77.6954 137.311 77.7242 137.32 77.7615C137.338 77.8361 137.366 77.9444 137.406 78.0817C137.486 78.3562 137.614 78.7467 137.806 79.2145C138.189 80.1497 138.83 81.3963 139.86 82.6432C141.924 85.143 145.54 87.6284 151.731 87.6284C157.931 87.6284 161.551 85.1431 163.617 82.6433C164.648 81.3964 165.29 80.1498 165.673 79.2145C165.865 78.7467 165.993 78.3563 166.073 78.0817C166.113 77.9445 166.141 77.8361 166.159 77.7615C166.168 77.7242 166.175 77.6954 166.179 77.6755L166.184 77.6526L166.186 77.6464L166.186 77.6446L166.186 77.6441C166.186 77.6439 166.186 77.6438 166 77.6061L166.186 77.6438L166.247 77.3455L165.952 77.4221C157.114 79.7199 147.561 79.4392 137.517 77.4197Z" fill="#00CAF1" stroke="#282C3F" stroke-width="0.380219"/>
<path d="M154.042 55.5531C154.042 56.8553 152.981 57.8923 151.703 57.8923C150.401 57.8923 149.364 56.8312 149.364 55.5531C149.364 54.251 150.425 53.214 151.703 53.214C152.981 53.1899 154.042 54.251 154.042 55.5531Z" fill="#212523"/>
<path d="M151.679 57.0724C150.835 57.0724 150.16 56.3972 150.16 55.5532C150.16 54.7091 150.835 54.0339 151.679 54.0339C152.523 54.0339 153.199 54.7091 153.199 55.5532C153.199 56.3972 152.523 57.0724 151.679 57.0724Z" fill="#5E5949"/>
<path d="M197.86 124.603V207.788" stroke="black" stroke-width="0.516624" stroke-linecap="round"/>
<path d="M41.7285 124.603V207.788" stroke="black" stroke-width="0.516624" stroke-linecap="round"/>
</g>
<defs>
<linearGradient id="paint0_linear_2126_76794" x1="120" y1="183" x2="120" y2="233" gradientUnits="userSpaceOnUse">
<stop stop-color="#00CAF1"/>
<stop offset="1" stop-color="#00CAF1" stop-opacity="0"/>
</linearGradient>
<clipPath id="clip0_2126_76794">
<rect width="55.2656" height="56.0666" fill="white" transform="translate(93.666 149.022)"/>
</clipPath>
</defs>
</svg>
